<mxfile host="app.diagrams.net" modified="2022-11-24T08:57:39.393Z" agent="5.0 (Windows NT 10.0; Win64; x64) AppleWebKit/537.36 (KHTML, like Gecko) Chrome/107.0.0.0 Safari/537.36" version="20.6.0" etag="zQfj6jqQdDpEpkGI40O-" type="github">
  <diagram id="23q0n6baSPUuBW2LWs1e" name="第 1 页">
    <mxGraphModel dx="782" dy="436" grid="1" gridSize="10" guides="1" tooltips="1" connect="1" arrows="1" fold="1" page="1" pageScale="1" pageWidth="827" pageHeight="1169" math="0" shadow="0">
      <root>
        <mxCell id="0" />
        <mxCell id="1" parent="0" />
        <mxCell id="csXw5IK4L9ogY58cCocU-1" value="代理模式定义：&lt;br&gt;给某个对象提供一个代理或占位符，并由代理对象来控制对原对象地访问" style="text;html=1;strokeColor=none;fillColor=none;align=center;verticalAlign=middle;whiteSpace=wrap;rounded=0;" vertex="1" parent="1">
          <mxGeometry x="60" y="60" width="120" height="80" as="geometry" />
        </mxCell>
        <mxCell id="csXw5IK4L9ogY58cCocU-2" value="" style="shape=image;verticalLabelPosition=bottom;labelBackgroundColor=default;verticalAlign=top;aspect=fixed;imageAspect=0;image=data:image/png,iVBORw0KGgoAAAANSUhEUgAAA8gAAAKYCAYAAACvq9FBAAAAAXNSR0IArs4c6QAAAARnQU1BAACxjwv8YQUAAAAJcEhZcwAAFiUAABYlAUlSJPAAAOwXSURBVHhe7L0HfBTlv76dLMsSEpMISJEqvasoVekoCFIiKApSBQUFFGlSpAmhWui99wREFFGUIoIgKiKKKAJSRFD4KxzghZNfTs6532d2J2Hy5JtkN9mQMvf1+Vwiu7Mzs5tlstfOzDMBAYO2I0UHp+KQz1J3qBcO+zx130jF4TtSd0Ric4/aiZAxu5Bv/Be3fWsPgsfuhvPNXQgYuRMBappUfVNSPd6iQy3HNW437prwBQpM+hJFpu5F4Sl7UXDyXvdtzrFqOjVNYncnVa1biqplJPWLxKrnmapv6e5J6oRUnHjbXJF7EDZtL4rOOIBSs77GfbMPoqT6s4j6e171WgRGfokA0zzqdSmsbi+u7i/03gEEq8c5J3+JQPW6Bbjdm1T1Oqaqmm8utayg6fuQT803/0w173e+gmPqPgQk57RUnP5V6r7the/sh0MZpJ53vjkHUWT+Nyi16DuUXvyd+897F3yLu9XtQWqdHe/uR4Cg8739CFava9jcbxBuavx/8OyvkXvm1whQzzlAzd9qLjU/l3qdg9Q08eZRy3Gq2wKNx2gat+VW0wTP+wYhyuB5B916/v8b9VjP43Mrc6n/d6hpAxI8mFg1TarOlfwmkS712tyz7HuUXPUD7jNc/QNKrT6Me1d8j7vU6+dQr2WArnqMbqAySE1fZOVhlFTzuG/tEbcl1vyAgiu/R94l3yFwoZrWqvrZxOtUj71bLbOIemxRZXH1WOP/C6w6jDxLDyFA3S+6RN0n6FDmUc8r7/LvEazmG2+IWr/gFWqeyw8hSP09j7rfqebvUNMGpKaaNkXVfFNVLd9qLvX8XOp5Blldc0Q0jzK3uj+X0qEMSE01vaRr3Y8ovPEoKn70CyooS2z+GYU2/YywqB8RtOEInOuPwLFOTev2x8Su98INkj8lNuonOJS5o39C8KajuFutQ96NntuM+9yq+xJ7NKnqeUgGKvO8/zPu/vAY7vrgZ+R+X92uluPx58Sq6SRzKZ3qca7Nx+D6ILG5lU6lQ90XEK/6e4pukfwlsR96ofqZJfbXpG7V/NgLtx1P3U+88NPfUna7F352InU/98IdJ1N2pxfuOpW6u73wC93fk7onFb8U3Hs6Zfd54VdnUne/Fx44m7pfp+LBc6n7jRd++0fqfpeKh86n7vdeePjP1P1B84jkhcT+6IU/6V5M6tFU/Fnyr8Qe88JfdP9O6q+peFzyUmJ/88ITupeTetILT+n+v8T+7oWnBc/8k7JnvfDcv6n7hxeev5Kyf2qKURyvFMS6UhBblWJYV4phXSmIdaUgtqrFsdXAeFUQG7rDOF4piK16EccBo28bqDRiOZep8f/GbTkujg0tgWzomPglnCqAc6ugdauiNZcKXmscx2vc7lTmUmHsiWKrKnat6iEsqeLYaqCKXyOMjT/FMDaUglhXCmKrUgzrqjC2GqjMpYI3twpap/lnLhW/gZYYFjUCWBmoGX+7FMhJ1IJYVMVzqiYKY0MVtr4GcpIwNlRxa1VFuaFDmVsFrlsVrobOBd8g0Ms4jteI5FzG41W4Ws21SN0XH8XxWuI4Xocyl5reoaY3zKWi2qH+LoaxoRbFokZcp6YUw7pSEOtKQWxVi2PRVSpsU1OKYV0hjK0616oQVzGbR+lUIexYewSBCVEcrwpbXwPZyzjWDTRNuC1aV4Wtl3FsNVAFsaGvcZxIFe+JVWGrKwWxbobEsaGKW8ZxUqUg1pWC2KoUw7pSDOtmVhwbSkFsVYphXSmGdaUY1pWCWFcKYqtSDOtKMawrBbGuFMRWpRjWlWJYl3HsUQpi3QyJY0MVt4zjpEpBrOt1IEsxrCsFsVUphnWlGNaVYlhXCmJdSxCL6mHsTRwb+hDHyeqPODbMkDg2VIGbzjgOUHGcRCGME5kkjA1V4KYzjsUY1pViWFcKYl0piK1qcSwqxbCuHsKSUhBblWJYV4phXX/EsaGXcZxIKYh1tShOoh7CkloYi0pBrCsFsVUphnWlGNaVYlhXCmJdKYitSjGsK8WwrhDESVRBnEh/xLFhGuI4ie4g1lVx62Mc347ieFXcpjuODVXc+juOvQnktMSxoRTEVqUY1pViWFcKYl0piK1KMawrxbCuFMO6UhDrSkFsVYphXX/EsWFGxLGhFMRWpRjWlWJYV4phXSmIrUoxrCvFsK4Uw7pSEOtKQWxVimFdPY7FQFZxmxlxbJghcWyo4tbfcexNIN+pOPYmkNMSx4ZSEFuVYlhXimFdKYZ19ThONpClGNaVglhXCmKrUgzrSjGsK8WwrhTEulkmjg1V3Po7jr0JZMaxRymGdaUY1pWCWFcKYqtSDOtKMawrBbGuFMRWpRjWTRLHhipu/R3HUiBLMawrBbFVKYZ1pRjWlWJYVwpiXSmIrUoxrCvFsK4Uw7pSEFuVYlhXimFdKYZ1U41jQxW3/o5jbwLZHcO6Km79HcfeBHJWimPDnB7HhlIQW5ViWFeKYV0phnWlILYqxbBukjg2VHGbXeLYUApiq1IM60oxrCsFsa4UxFalGNaVYlhXimFdKYh1pSC2esfi2FDFrb/j2JtAZhwnb0bEsaEUxFalGNaVYlhXimPDTItjQymIrUoxrCvFsK4Uw7oZEcfeBHJWimPDrBLHhhkRx94EshTDulIM60oxrCsFsVUphnWlGNaVYlhXCmJdKYitZvc4NpSC2KoUw7pSDOtKMawrBbGuFMRWpRjWlWJYVwpiXSmIrUoxrCvFsC7j2KMUxLoZEseGKm6zQhwbSkFsVYphXSmGdaUY1pWCWFcKYqtSDOtKMawrBbGuFMRWGccepRjWlWJYVwpiXSmIrUoxrCvFsK4Uw7pSEFtNSxx7E8hZKY4Ns0ocG2ZIHBuquGUc3zbLxrGhFMRWpRjWlWJYN7Pi2DBD4thQxW2WiGNDFbf+jmNvAjktcWwoBbFVKYZ1pRjWlYJYVwpiq1IM60oxrCvFsK4UxLo5PY4NpSC2KsWwrhTDulIM60pBbFWKYV0phnWlGNaVglhXCmKrUgzr6nEsBrKK28yIY0N3EFtVcZvuODZUcevvOPYmkO9UHEuBLMWwrhTEulIQW5ViWFeKYV0phnWlILYqxbCuFMO6UgzrSkGsmxFx7E0gSzGsK8WwrhTEulIQW5ViWFeKYV0phnWlINaVgtiqFMO6UgzrSkGsmxFxbJghcWyo4jZLxLGhilt/x7E3gZzd49hQCmKrUgzrSlFs1adAlmJYV4phXSmGdaUgtirFsK4Uw7p+iWNDFbf+jmNvAvlOxbE3gZyV4tgwp8exoRTEVqUY1pViWFeKYd0MiWNDFbfZJY4NpSC2KsWwrhTDulIQ60pBbFWKYV0phnWlGNaVglhXCmKrdyyODVXc+juOvQlkxvGdjWNDKYitSjGsK8WwrhTEulIQW5ViWFeKYV0phnVTi2NvAjm7x7GhFMRWpRjWlWJYV4phXSmIrUoxrCvFsK4Uw7qpxrGhilt/x7E3gXyn4tibQM5KcWyY0+PYUApiq1IQ6/p177EUw7pSDOtKQawrBbFVKYZ19Tj2JpAZx8mbIXFsqOI2K8SxoRTEVqUY1pViWFeKYV0piHWlILYqxbCuFMO6qcWxN4Gcljg2lILYqhTDulIM60oxrCsFsVUphnWlGNaVYlhXCmJdKYitSjGsK8WwrhTDulIQW01LHHsTyFkpjg2zShwbZkgcG6q4ZRwnVQpiXSmIrUoxrCvFsG5mxbGhFMRWpRjWlWJYV4phXSmIdaUgtirFsK4Uw7pSEOtKQWxVimFdKYZ1GccepSDWzZA4NlRxmxXi2JtAlmJYV4phXSmGdaUg1pWC2OqFq2YgSzGsKwWxVSmGdaUY1pViWFcKYl0piK2mJY4Ns0ocG2ZIHBuquPV3HHsTyNk9jg2lILYqxbCuFMO6UgzrSkFsVYphXSmGdf0Rx4YZEceGUhBblWJYV4phXSmIdaUgtirFsK4Uw7pSDOtKQawrBbFVKYZ1pRjWlYJYNyPi2DBD4thQxW2WiGNDFbf+jmNvAjktcWwoBbFVKYZ1pRjWlYJYVwpiq1IM60oxrCvFsK4UxLpSEFuVYljXH3FsmBFxbCgFsVUphnWlGNaVYlhXCmKrUgzrSjGsK8WwrhTEulIQW5ViWFePYzGQVdxmRhwbZkgcG6q49XccexPIdyqOvQnktMSxoRTEVqUY1pViWFeKYV0piK0acewOZCmGdaUg1pWC2KoUw7pSDOtKMawrBbHVLBXHhipu/R3H3gQy49ijFMO6UgzrSkFsVYphXSmGdaUY1pWCWFcKYqtSDOsmiWNDFbeM46RKQawrBbFVKYZ1pRjWlWJYVwpiq1IM60oxrCvFsG6qcWyo4tbfcexNILtjWFfFrb/j2JtAzkpxbJjT49hQCmKrUgzrSjGsK8WwrhTEVqUY1k0Sx4YqbrNLHBtKQWxVimFdKYZ1pSDWlYLYqhTDulIM60oxrCsFsa4UxFbvWBwbqrj1dxx7E8iM4+TNiDg2lILYqhTDulIM60pBrOt1IEsxrCsFsa4UxFalGNaVYlhXCmLdjIhjbwKZcZy8GRHH3gSyFMO6UgzrSkGsKwWxVSmGdaUY1pViWFcKYl0piK3eqTiWAlmKYV0piHWlILYqxbCuFMO6UgzrSkFsVYphXSmGdaUY1pWCWFcKYqtSDOtKMazLOPYoBbFuTo9jQymIrUoxrCvFsK4Uw7pSEFuVYlhXimFdKYZ1pSDWlYLYKuPYoxTDulIM60pBrCsFsVUphnWlGNaVYlhXCmKraYljbwKZcZy8GRLHhipuGcdJjY/jVANZimFdKYZ1pSC2KsWwrhTDulIM62ZWHBtmlTg2zJA4NlRx6+849iaQs3scG0pBbFWKYV0phnWlGNaVgtiqHeLYUApiq1IM60oxrCsFsa4UxFalGNaVYlhXimFdKYh1pSC2KsWwblaOY0N3EFtVcZvuODZUcZsl4thQxa2/41gKZCmGdaUg1pWC2KoUw7pSDOtKQawrBbFVKYZ1pRjWlWJYVwpi3Zwex4ZSEFuVYlhXimFdKYZ1pSC2KsWwrhTDulIM60pBrJsRcWyYVeLYMEPi2FDFrb/j2JtAzu5xbCgFsVUphnWlGNa1xnGKgSzFsK4Uw7pSEOtKQWxVimFdKYZ1/RLHhipus0QcG6q49XccexPI2T2ODaUgtirFsK4Uw7pSDOtKQawrBbFVKYZ1pRjWlYJYN0Pi2FDFLeM4qVIQ60pBbFWKYV0phnWlGNaVgtiqFMO6ehyLgaziNt1xbKji1t9x7E0g36k49iaQGccepRjWlWJYVwpiXSmIrUoxrCvFsK4Uw7oZEcfeBLIUw7pSDOtKMawrBbGuFMRWpRjWlWJYVwpiXSmIrUoxrCvFsK4Uw7qpxrGhitssEceGKm79HcfeBDLj2KMUw7pSDOtKQawrBbFVKYZ19ThONpClGNaVYlhXimFdKYh1pSC2KsWwrh7H3gTynYpjbwI5K8WxYVaJY8OMiGNDKYitSjGsK8WwrhTDulIQW5ViWFeKYV0phnVTi2NvAjktcWwoBbFVKYZ1pRjWlYJYVwpiq1IM60oxrCvFsK4UxLpSEFuVYlhXimFdKYh1pSC2mpY49iaQGcfJmyFxbKjiNivEsaEUxFalGNaVYlhXimFdKYh1pSC2KsWwrhTDuqnFsTeBnJY4NpSC2KoUw7pSDOtKMawrBbFVKYZ1pRjWlWJYVwpiXSmIrUoxrCvFsG5mxbE3gZyV4tgwq8SxYUbEsTeBLMWwrhTDulIM60pBbFWKYV0pjg3TFMhSDOtKMawrxbCuFMS6UhBbze5xbJghcWyo4jZLxLGhitvsEseGUhBblWJYV4phXSmIdaUgtirFsK4Uw7r+iGPDnB7HhlIQW5ViWFeKYV0phnWlILYqxbCuFMO6UgzrSkGsmxFxbJhV4tgwQ+LYUMWtv+PYm0DO7nFsKAWxVSmGdaUY1pViWFcKYqtSDOtKMazrjzg2zIg4NpSC2KoUw7pSDOtKQawrBbFVKYZ1pRjWlWJYVwpiXSmIrUoxrJuV49gwQ+LYUMVtlohjQxW3/o5jbwI5LXFsKAWxVSmGdaUY1pWCWFcKYqtSGMfrcxwbSkFsVYphXSmGdaUY1pWC2Gpa4tgwQ+LYUMWtv+PYm0C+U3HsTSAzjj1KMawrxbCuFMS6UhBblWJYN0kcG6q4zQpxbCgFsVUphnWlGNaVYlhXCmJdKYitSjGsK8WwrhTEulIQW5ViWFeKYV0phnVTjWNDFbdZIo4NVdz6O469CeTsHseGUhBblWJYV4phXSmGdaUg1pWC2KoUw7pSDOtKQawrBbFVKYZ1k8SxoYpbxnFSpSDWlYLYqhTDulIM60oxrCsFsVUphnX1OBYDWcVtuuPYUMWtv+PYm0C+U3HsTSBnpTg2zOlxbCiFcbx+j2NDKYitSjGsK8WwrhTEuhkRx94EMuM4eTMijr0JZCmGdaUY1pWCWFcKYqtSDOtKMawrxbCuFMS6UhBbvVNxLAWyFMO6UhDrSkFsVYphXSmGdaUY1pWC2KoUw7pSDOtKMawrBbGuFMRWpRjWlWJYN7Pi2JtAdsewrorbzIhjw6wSx4YZEceGUhBblWJYV4phXSmGdaUgtirFsK4Uw7pSDOtKQawrBbHV7B7HhlIQW5ViWFeKYV0phnWlINaVgtiqFMO6UgzrSkGsKwWx1bTEsTeBzDhO3gyJY0MVt1khjg2lILYqxbCuFMO6UgzrSlFslXGs6Y84NswqcWyYIXFsqOLW33HsTSBn9zg2lILYqhTDulIM60oxrCsFsVU7xLGhFMRWpRjWlWJYVwpiXSmIrUoxrCvFsK4Uw7pSEOtKQWxVimHdrBzHhu4gtqriNt1xbKjiNkvEsaGKW3/HsRTIUgzrSkGsKwWxVSmGdaUY1pWCWFcKYqtSDOtKMawrxbCuFMS6OT2ODaUgtirFsK4Uw7pSDOtKQWxVimFdKYZ1pRjWlYJYNyPi2DCrxLFhhsSxoYpbf8exN4Gc3ePYUApiq1IM60oxrCsFse4djWNDKYitSjGsK8Wwrl/i2FDFbZaIY0MVt/6OY28CObvHsaEUxFalGNaVYlhXimFdKYh1pSC2KsWwrhTDulIQ62ZIHBuquGUcJ1UKYl0piK1KMawrxbCuFMO6UhBblWJYV49jMZBV3KY7jg1V3Po7jr0J5DsVx94EMuPYoxTDulIM60pBrCsFsVUphnWlGNaVYlg3I+LYm0CWYlhXimFdKYZ1pSDWlYLYqhTDulIM60pBrCsFsVUphnWlGNaVYlg31Tg2VHGbJeLYUMWtv+PYm0BmHHuUYlhXimFdKYh1pSC2KsWwrhTDuheVYgzrSjGsK8WwrhTEulIQW5ViWDcrx7E3gcw4Tt6MiGNDKYitSjGsK8WwrhTDulIQW5ViWFeKYV0phnVTi2NvAjm7x7GhFMRWpRjWlWJYV4phXSmIrUoxrCvFsK4Uw7pSEOtKQWw1LXHsTSAzjpM3p8exoRTEVqUY1pViWFeKYV0piK1KMawrxbCuFMO6qcWxN4Gcljg2lILYqhTDulIM60oxrCsFsVUphnWlGNaVYlhXCmJdKYitSjGsK8WwbmbFsTeBnJXi2DCrxLFhRsSxN4EsxbCuFMO6UgzrSkFsVYphXSmGdY049iqQpRjWlWJYV4phXSmIrUoxrKvHsTeBnJXi2DCrxLFhhsSxoYpbxnFSpSDWlYLYqhTDulIM62ZWHBtKQWxVimFdKYZ1pRjWlYJYVwpiq1IM60oxrCsFsa4UxFalGNaVYlhXimFdKYh1c3ocG2ZIHBuquM0ScWyo4ja7xLGhFMRWpRjWlWJYVwpiXSmIrUoxrCvFsK4/4tgwp8exoRTEVqUY1pViWFeKYV0piK1KMawrxbBuVo5jwxwfx4Yqbv0dx94EcnaPY0MpiK1KMawbH8d+CWQphnWlGNaVglhXCmKraYljwwyJY0MVt1kijg1V3Po7jr0J5Owex4ZSEFuVYlhXimFdKYZ1pSDWlYLYqhTDuv6IY8OMiGNDKYitSjGsK8WwrhTDulIQW5ViWFeKYV0phnWlINaVgtiqFMO6UgzrSjGsmxFxbJghcWyo4tbfcexNIN+pOPYmkNMSx4ZSEFuVYlhXimFdKYZ1pSC2KsWwrhTDulIM60pBrCsFsVUphnWTxLGhitusEMeGUhBblWJYV4phXSmGdaUg1pWC2KoUw7pSDOtKQawrBbFVKYZ19TgWA1nFbbrj2FDFbZaIY0MVt/6OY28CObvHsaEUxFalGNaVYlhXimFdKYh1pSC2ao3jVANZCmKrUgzrSjGsK8WwrhTEuhkRx94E8p2KY28COSvFsWFOj2NDKYitSjGsK8WwrhTDulIQW5ViWDdJHBuquPV3HEuBLMWwrhTEulIQW5ViWFeKYV0piHWlILYqxbCuFMO6UgzrSkGsKwWxVSmGdaUY1k01jg1V3Po7jr0JZHcM66q4tXscG2ZEHBtKQWxVimFdKYZ1pSDWlYLYqhTDulIM60oxrCsFsa4UxFazexwbSkFsVYphXSmGdaUY1pWC2KoUw7pSDOtKMawrBbGuFMRW0xLH3gTynYpjbwI5K8WxYVaJY8OMiGNDKYitSjGsK8WwrhTDulIQW9XjOMVAloJYVwpiq1IM60oxrCvFsC7j2GOGxLGhitusEMfeBLIUw7pSDOtKMawrBbGuFMRWpRjWlWJYVwpiXSmIrTKOPUoxrCvFsK4UxLpSEFuVYlhXimFdKYZ1pSC2KsWwrhTDulk5jg3dQWxVxW1mxLFhhsSxoYpbf8exFMhSDOtKQWxVimFdKYZ1pRjWlYJYVwpiq1IM60oxrCvFsK4UxFbtEMeGUhBblWJYV4phXSmIdaUgtirFsK4Uw7pSDOtKQayb0+PYMEPi2FDFbZaIY0MVt9kljg2lILYqxbCuFMO6UhDreh3IUgzrSkGsKwWxVSmGdaUY1s2sODbMkDg2VHHr7zj2JpDvVBx7E8hpiWNDKYitSjGsK8WwrhTDulIQW5ViWFeKYV0phnWlINbNkDg2VHGbFeLYUApiq1IM60oxrCvFsK4UxLpSEFuVYlhXimFdKYh1pSC2KsWwrh7HYiCruE13HBuquM0ScWyo4tbfcexNIGf3ODaUgtiqFMO6UgzrSjGsKwWxrhTEVqUY1pViWFcKYt2MiGNvAlmKYV0phnWlGNaVgtiqFMO6UgzrSjGsKwWxrhTEVqUY1pViWFeKYd2MiGPDDIljQxW3/o5jbwL5TsWxN4HMOPYoxbCuFMO6UhwbZlocG0pBbFWKYV2/xLGhilt/x7E3gcw4Tt6MiGNDKYitSjGsK8WwrhTEulIQW5ViWFeKYV0phnVTi2NvAjm7x7GhFMRWpRjWlWJYV4phXSmIrUoxrCvFsK4Uw7pSEOtKQWw1LXHsTSDfqTj2JpCzUhwb5vQ4NpSC2KoUw7pSDOtKMawrBbFVKYZ1pRjWlWJYN7U49iaQ0xLHhlIQW5ViWFeKYV0piHWlILYqxbCuFMO6UgzrSkGsKwWxVSmGdaUY1k01jg1V3Po7jr0JZMZx8mZEHHsTyFIM60oxrCsFsa4UxFalGNaVYlhXCuN4QQghhBBCCCGEEAYyIYQQQgghhBBiwEAmhBBCCCGEEEIUDGRCCCGEEEIIIUTBQCaEEEIIIYQQQhQMZEIIIYQQQgghRMFAJoQQQgghhBBCFAxkQgghhBBCCCFEwUAmhBBCCCGEEEIUDGRCCCGEEEIIIUTBQCaEEEIIIYQQQhQMZEIIIYQQQgghRMFAJoQQQgghhBBCFAxkQgghhBBCCCFEwUAmhBBCCCGEEEIUDGRCCCGEEEIIIUTBQCaEEEIIIYQQQhQMZEIIIYQQQgghRMFAJoQQQgghhBBCFAxkQgghhBBCCCFEwUAmhBBCCCGEEEIUDGRCCCGEEEIIIUTBQCaEEEIIIYQQQhQMZEIIIYQQQgghRMFAJoQQQgghhBBCFAxkQgghhBBCCCFEwUAmhBBCCCGEEEIUDGRCfCHuFm5cv4Zr167jxq0480ZCCCGEEEJIToCBfMeIwx/7PsDWQ+dx07wlCXEX8cWSSZg4cSIiZ23FiVjz9hxDDH7aNB2REyMx99PfkerTi7uA3YuN12My1h+6Zd5o5V/sXznZff/Kr/41b8tYbh0YizpBAQgICELdcQdxe63icHH/duy/kNZojsWJHRuwZf8pXPVhFnF/78emdZ/iu7PX1Br4h7iLX2HLh4dwQXrJUyQOZz+br36+EzExch62n75Db+DYU9gd/RG+OXvdvIEQQgghhJC0wUC+U8Qex6xWYXA4QlHq0Vew5jchHmJ/xXstQlR8BcBVbSh2aiV97djXOPx3dt5reR2bXyoGh4rLGiP3WuIyGWKOYGqTYPV6hKHz6ivmjRbizmBeu1B1fyjazDvtt0BMiZjvIlE/2BPIdcZ+bT6HOPzxyQg0KuRE+IM9MO/ry76vy62vMKZWEAIcTuSv/gqivQrtOJxf/hwKOQLgcBbE49MPIca8J+3cwreRDRDqcCCsbGP0W3Us9S8yEriFg+PrIUi9fwOCauLNfT4XtskNfNi/AgrkL4xHx36V6vsk5vBkNAp2wBFUGA+9sgHnsvM/EUIIIYQQkqkwkO8QsT+/g+ahDhVWDgTXG4evpU/9cb9jbhsj+DyBvCshkONwed87iCgbhHw1VIAduOT/GLwchZcfrIzKldNp1SYYuzu5feQ5IJCPTEUTM5Brjz1gPofr+GFJV1QNMX6+AXAWqocB639J/kgBgSsfD0AllzFfJ8r23oi/vOrj81jRqZB6PY0grY2x+9MapBb+3ow+5Zzu5+EIb4qp3/syT38Fsi/vkxh881Y9BBvLdOTDk7N+9SHoCSGEEEIISQwD+Y5gfIh/BMEO40N8frSZc1z+EB93AUs6mIFcZTA+jy+suEv4fExjFHYaAaXCJX9N9F74Df5JLqJu7cXkiEZo0KCBVzbqMB37zi9HxzDP/NOlszxe/fSGuSI6yYdP3D8/Y88nH+Pjjy1+tASvPByk5huCFmM2J77PcOtaDGlgBHQw6g9Zg636/cptu4/ish/LOfaX99AixHiuQag12rp38xZ+i34V9Qp4ItkRXAHPzNjv3bLjzmFlp6JwGo8LbYRJ33kXlnHnV6BTIc+XLiGNJ+Nwuncfx+Loe08gn/E+DXCh+sBP8Y95j3dkQiDf2IVhD7jcr7mzWBesPn8nviYhhBBCCCE5FQbyneD6Dgypbn6IL9UDGy4m9yH+KtY8H+7eI+gsNwDbrJ0Z9w++ntMZVd17oY0QLYRHX9uAX6QWvfEJBph7Ab3RVel1bP8jPpBVbDXsj5lz52JugrMx5ukKcBnTu8riqVGzLfcZzkFk1/s9YZTGQL71dfy5vf416OFRSHOnCcSdnoc2oca8g/DgiD1avMXh/PZRaFLYfO2dJdFp+alU92jG/DANTd0/VyfK9Y5Gsm+PRMTh94VPoaD5pUvbeSfSv+f00kfoX9l8nxZ/DstO+TrHOx/Ilza9iDLuL45cqKKC/qp5OyGEEEIIIWmBgZzhxOHihh4o5f4QH4SHRnyhPv4nhwqDF4t6Arl4H3yQpDNj8PtHI/FYMTPAHEEo2zYSn/+hhUzMT9gwYTiGDRtmOgSdaoW55xvgqoJ2r8bf7nF4ZBSOXrgdyPm7b9DWMbXwicUv77VAiHF/GgM55tB0tKlcHuXLWy2Dwu7Dlh0IL67fZ1gWRcM894cVLSvcXx6VW07BwbR2msRfS/GM+3VyoeqQHcJh1CqSPzXORw5FtR5L8aP4w76JS2dP4sSJE8qjiHq5svvLB0dwHQzf9qt5u+bJ87hiDeeYHzG9Waj7Z+ooGIGZB3+TH2f15Gn8ldyPRv00Dk1pgnB3cOdDs6mHkoTptYuncFKab4K/YuvQmub75AG8vuUXYZrEnjxzSXgNvQzk2BOYF1HQ874OeghDPkrmtUvFk7//lcK/SUIIIYQQYicYyBlN7C+Y2SpfQsjMlwbnSuAmPn3Ns6fWEf481oq7w+Jw+at38VRZlycMVBzmqzsSu4RTdG8THxxq+tAILDgr7KL8O3MDWcSP5yDHxdzA9WvG5ZnS6V8r0Sncs7e3fP8PcVma5tpVnDqwD0cvW267fh0343/0tw5gbG3j0HHj9fbS0PZYYhm46+a+N1HT1z3urkp4fbt8ZnTc2dXoWsr44sWBoBpDsSPJy30dG18wz3f2o/Iefu/eJze+HKleA/OIinToqjQIn/lywjghhBBCCMmxMJAzmKs7huIBd8i4UPW1T5DyxYhuYd+bD3tCVIXswhSG4712eDG6Vg2Bs0A9DHz/VCqjF9s9kGPww5TGnoGcMktHOLquN1/VdAfyJXzQt7znkHdfdFXH0Nsjv1n4B58PqYEgY++xsxxeiPoj4bW8ceRTbPnuL/UTzqhAHoHN2+ZjwrhxGJfgGPR4xDjVwIkSzV/BWMt9E+Zuh/vtG/c7lj1XzH3etjRfX3Q9MBxfMJAJIYQQQoiCgZyRxJ7C4qeLeKIiuAEiv09tFKUY/DitiSfkQh7D9KMpnwN68/jHWL/znBfnnmZSIN/cjkFVwxEaGppgsMtzSLQzKCTR7fkbR+I7/eWJO4ePpw/Ca68NwYKvpIK5jJ2zBqv7B2PmzpRG9s66gewq3x6jZ1vP57Y6EwMae85JtwZy7NH30CKfZy92sZZDtPPFdecgsot5fnhQDYz4MunXEtf3jcOj7kPVnSj+9GIkHOQQ+wvmti0Ep6so6nQZjyUbNyI6KgpRyboB73WvYp6rXhHPT18vTJPYjdsOYMck7382wY+8hW/U++TKzmGo4d577ETRViOxZNUqrPLFFZHoWM5zvnVQrTHwxwDghBBCCCEk+8NAzkCufD4ED8YfAppcmCYiDn8sjECoMb0RM3u9+NQecw1/nT6G7/fvwidb9uC4uCfMl0A2Du8unuRc3lKFgj2PdwSjYKnE9xmWKeI5HzZRIPswWJgnfNTz3/8+VktB46NrPzuG2/ux43Bh92JMmjgRE9PrhEFoW94Mq/ufxUhpGsnIKdgQP8y0JZCDao/FgWR/zJa9tgmB/C8+ea2q5zD8kEcw/kBquz5jcXR6M8+XF0G1MEYvwVvfY3rzAu5lOAo+gXePxN8fh4ubXkIF96WnHAipNRw7Uz78QZGWQbpi8duqAWj9xBN4IsEWqFnSc7h3vkr10cJyX+u+S/Hz9R/UOuf3rHNYQ0QeTMPu35s7MaSq5+cYXF/4coYQQgghhNgSBnJGEXMUM1p6wsMdgV4FskqijS+gsPtQ1+LotvggDnzxKbZErcSi2dMROeYNvNa3Jzq1fxKPPfowqpYpgjD3HllzGSHNktnr7Fsgp0trIMf9hR93b8f27R63zXsBld3B5UKlHnOxzbzd8LN9v6r0u4kdQ8w9kOk09KlF+CP1l9t3Yn/FjBYh7mWEPP4OjqW++z4p6QjkWz+8gxbuS0k5UeaFKFhOS06GGByJ33se/AjeMna/JnAdB6c8njASdrPJ39z+UuHaHoysHeKJ0OCHMGT7ZfOOlEhLIAvcOohxdY3XRzoUPxbHF3VAMWPQO0cQHhy83XIpqpv448RpXDP/liI3PsWr5T1f3gQ3m46f0vJzJIQQQgghOQ4GcoYQhzNrupmXnzGND9O4m/jnj9/w48EvsX1LFFYtno3pkaMx7NU+6PFcBFrUKuW5XnL843zRVQGviYMw+XaIdejjb2DVunVYl+AaTO/qGWnZWEanqast9xmuxZw+5rnTyZ6DHIuf33kcIe7nltw5yJZAdhbGA4+1RuvWPvhkPZQ199hnWCDHXcSSpz3Xqg6qMxZfp6UB0xrIf5zA0mdLeK6XXKAF3vnBm92eMTgU2cAM5IaYZLlY8r9fjMaj7gHHjIGqemDe9h34bPsn2PrhZqwc1gz53eEchAde24a/vXot/RPIsSfnoLX7sldJ3yexp1bi+TKesHVV6oNNlusex11Yi24lQlC89jMYNHM7fk8pem98iJfdg5IFIKTlzNuHlRNCCCGEEFtjw0COwYWvN+CdkQPw0ot98fq4efjop1SPHfWJuEsfY0A1z+GbCZphenP7QFR070X1XYczGAVKVMQDdRvjiYjn0L3PAAx5cwKmz1yIFRs+wKe7v8Zv/0glk0nnIFuJO4V5bc3zab0J5OCmmP6Tj8e9Xt+EXoUzOJDVKxPVw3NpIVeVwfg8DUf3pjWQ520dgzrB6vk5wlB/3Ffazyg5Ym7/7IwjDBJ2lcbgyNTUzv11wFW1H7Z4d2FmhT8COQ4XVjzn2aud5H1yC99NbYYCxn2uCnhhw1k1dTyx+Fm9B92XqTLOpe68yjOYV3JY3yvt5uNMhrxXCCGEEEJIdsNmgXwZ+6a3S9jLGK8j/AH0WPaj5ZzV9PAPPh/6sGcvsCME4eFBicI07vd5aBN6e9luHU4EFyiBCg/UQePm9VDOiCAjVB8fimVRW7B9z0EcOX4Ol2/48Cn+1jX8+88/+MftBazv6bm+ckBoG8w6dtm83fBfXDM6NIMDOe7MYnRwHxpsLMMIn9345ZNofJHoGGFrIDdG5MFLlvX0wgtr0CPDA9lyKa4ivfG+d5WamLTuQT5/C3/smYM+z4/Djn/VbE5vx+qPfhG+aLByC1+NqWUGcgvM+PX2rtJb+8egtvVSUQ4HgsLCERp/2L6rEvpsOm+J0Bj8tHY0BvTvj/6i/dClYXHPyNLOoqjfuZ8wzW1fm7ZN+Bn9hbVdzfeq8T4ZtAhLZn+AU/HflcRdxrdLB+C5IZsTP/b6bgyv4XlNHcG1MXpfKv+ar61HV/dAZwEIe2aZWiohhBBCCCE2C+RLWwegajLXTXWEN8Bb+9OfyP/sHIHaIcYyHAipMxRj4z/sx++5jfkZH86bg8WrorBl+x4cPPIbzl2+cTtCbu3FSPODftoP/YzDufjBvlI1DM+uuIy4DA3kWJyY1xb53Hv3DJ0oWa8Bqoa6UPKpOTicMHk2OAfZeshyaDvMS8uux3QN0mUQi7PbJ6Bd+WA48jfAm7vUz8+8Jym3sHdEDc/PLrQ15pyyTBl7Ft/t/AJfffcjjp++gMvXb+HvT17Hg+4vaFyo8EKUthfWfz8fw5DH38bP2vs77uIadC0aP7CbA6HhYXA58uPRYdtgOZpaIw5nV3ZCcfcpDeq91SWVvccGl1fiOfP9Hv78GoiXHCeEEEIIIbbDPoEc9xdWdTZjQ1QFwaufpmsvctzfn2LwQ+bARkHV8erH5/B+aoc268Sdx5IOYe7HOMsNwCdpWqEsFsixx/BeC/WcnMVQvpxxmLULpRs2RXXjPFNHGGq+vtUcbMoSYA4ngkJuXwbKO4NVTBnPIZlAvvU13qqfX3icdxbqsFCFVxwuLOlgjjReB2OTr9vkSXcgqyDc+BKquL/sccBVsQdWn0jum5Sb2Dm0muc1Ve/BlK6tHXfpUwyqYYxWruZZpQ82JZn2Fr6a0g51a9VCLT/4yAtLkXi11fNa8ox5eLWhE0UqV0ZRI3ydRdB84h5cllb/5tcY/4j57y68CaYcSv1nEvfHIjzlPpLDgUI9o7X3OyGEEEIIsSv2CeSY7xBZP9j84C0bGrEQKfRDqvy9+nkUcn+4d6H8C1FqXl6c+5sES9CEtMSsZMMnZW789iU+eP99vO82CuNae86bDQiuj9dXbDJvN9yCfcbxqwmBrCIjrAhKly6dyOIF4i/zFIT8xRPfZ1iykCdQpEC+dfAtPBLsgLNkd/R/3tijHoQaI3bg23kdUNodP2XRaekviLEGckacg2wJ07QY2m6e+1zVGx++jJLu9S6BPlvS8A2GZT1cFZ5D5NLlWL5ccgmGPJ70Oshu4i5h+9BaCHW/35wo3GI6vhGHb76J7QMrel7TsKexNLljieMu4MMBD7hPDXAEP4BXt15MYa90BhF7FO+2UM/XVRKVK+Yz3ydb8MHrtRBmrJerDJ6e+70Ws3H4Y10Pz/tI/bur9tonMMbbvnL0A0zp3Rljkxl9O+7UHDwZ4nntSvbd4qfTKwghhBBCSHbHRnuQf8e8tp49s3r4eHSg6AvR6TrUMu7iWnQr7nTvfdvoLu20BHIcLi7r6Dkc2VkcvTf54+DPTLrMk5t/8GE/I9CcKNZjJVa9aKyHOfhS3N/Y/kZdT/wUaokZR65lbCDHnsKH00dg2LBhSRzQ1hyl25EPdToPEacZMX+P+5JCMYci0SDYeL4heHL2Sfj8FUZaQl0PZIMrezG2vhnQjlDUHPIJ/kryo72Brf3LeM4LDuuEVeJ4dHE4vb4nKhrnHqv51Br2uTsy7zTX94zAQ0HGlwZ9MKTb7ffJzZs/Yl6HUp7Ru0Oqo/e6E0h4Z1zfh9F1PF/eOEs9j1Wn1QsQ8yPea2FcYs2BkNojsPuKOa2F2GPv4HEzkCu89inSMtYaIYQQQgjJedjoHORYHJ/XztzDK+gsi97R6d1r9g82v9IcAxP2vqUlkFU/fT0WddyDJwWh5pv7kIaDeDV8G8U6tNEAzF2wAAsSnIdxHc29kK5y6DBmnuU+w/mY0v1BzyHYWiDHnlqEDoVUeDlLomfUWfOQczOQjQlufI8ZbUqharfl+PmmZQ9yUG0MXLcLX3zxhfd+Ph1PFUghkJNFBeK8Np7Dpr3ZK/zvenQraCzHifJpOSzfX4GsuH4gEk3ye56zw1URPdf/rgX7jYSfvSNfN2wQjiW+cXgm2hU3zvt1ILz+GHwpBGWGE3cOq543LmHlQoUBH2Cd9YsU990foN/9KoSdhdDozc/MLwJi8dvC9ihi/Jt2FETLGT8mhPONb6ficeO94AhDg/FJR/yOOTwJDd1fcrhQfdguBjIhhBBCCHFjq0G6cPNHLHy2PIL0SHaE46F+G3E6bUczJ+LW5cuWvdBpC2Rc3Yw+JT3BEvrkHJxM93p5sR7/RKN/zeqoXv1+1B78kRZ9qZ+DfHJJdzxUXT3+gccx7ov43LiigleFs3q9neVewYdX4tfDEsiKuItncM69wMwapMvHQDYCt44ncEPUz8c67pVXWAI5qOZwfH7+L/z1l+RZrOpqHhqfTCAbAXxwUtOEAdCcJZ/GwmPWPe/GZamMvakqkAv3wiatFOP+2IpBtT1HVjgKNEXkATVB3E1cOnkYe7dFYdmsSRj56gvo1H8Jjhqzjf0Hp3/+CT/9lD6P/n45Uchf3zfacwmroBoYseey+D65su89DJ6ywzxfXa3mhU3oU9G4nJoDYfXHY3+i53YT37/dwv2FmCP/Y5j6XeIETvQl1OivEpZBCCGEEELsjb0C2eDmCWyb/gra1quCMqXK4YHGz2LIgr0474c4TkoaAznuHBa39xw66yj4LJYnP3yvl6RxPRJI2/VtY3+eiVbuPbou3D90p1oLOZBvYx2kKxRFy1dG5coWK5bwhKAjDMUqaPe5LYX8Ts/e1AwNZFzG2q6ewbOcpV/Gh+K5vylgDeQ0DdKlcX0/JjQyD7UOcKLIkzPxQ8I8r2BVpzD3spwl+yLRU4s9hnkRRT2HX6vIDCpTG80efQBlCprnm1sMfuQtfGMEsp8OxU/084n9Va1HEbVMB0IaTsL3Mam9Twz+xY6hD5nnTNfAkM+Ng981bnyLKc3yu+dbSL0mP1m+N7i1ZzgecF+PPBj1I7+7fcg2IYQQQgixNfYL5DtKWsM0Bj9Oa+q5lJCjKHqsv2TenlYyJ5D/Xt8dxZwqYPK1wHvu6/mkFj6xOLFtLqZOnozJ05bhy4uJ1zPmhyloHKzmV6gb1kvn0sb8hPffnYLJ6vHT137jw/nkvgZyLH5++zHPqN1BtTD6K+9ejwT8HciKq1++ibrGqOAqBsPv74EVv5jf+MRdwJIOoe5lOcu/mnhU9LgzmN8upfPy1WttDMpWqgrqdl/ouSRTBgTypc19UM496FkxPLf8jPpppPY+icMfH76Gh93P14Uqr2yB9lZJ4PpX49EgTE3nLIlOy04l7LW+uf11VHIHcggem3400d5sQgghhBBiXxjIGUrawzTmG2PkZ+MDvBMlX4hC+hI5cwIZV7aif4VgVOjzvnnOaGrhkzJ/r+mCwo4AhDSbjp/8WjS+BrIKrM8Ho4oRWI4QtJz5m2+BlQGBrDITnwxqiEavLMHBS5bp4k5hzpMh7mW5qg7BzkRHGt/CV6NrISS8GCo93Agtn+6GvoPeROR7C7Fq0yfY8+0xnP1XWznLuerhbSfjM+lc8ORM5hzxWweMw50dCHpoBL5wHyad0vskFqe3DEGDwp5rJTtcldH+jUhEThiPsaNHYcQbQzB44AD0f7kPevfsji6d2qK2+/xq9fwr9sEm8zW8saWvZyTytA60RgghhBBCciQM5AwlHWF66yuMqeWJKEfhZ7EspcfGXcRP3/6GK8lOktp63MKesY1QTrt0k9XULvNktcIz8/CruziuY+f417D4eHx+yOETe/oLrF2yBEtSdAGGtywCZ4ATZdqPxUJxmqQujfoKqR+h7nsgG+dsv2AObJUvYn7y5yGrn82PX/+MS9YCy5BAVsTFqmeiEXsU05t5AjnooZHYqy0r7sZ13Ej19bFgCeSk18tOheRGGY/5EdMeq4Tua8+a659SIMfhwoae5mWdfNQRjBpDPnOPRH49qod5veVQtF98PunrRgghhBBCbAkDOUNJRyAjBt9F1nefY2kMItbi3RQOA70ahZ5FglG0Rmv0efsz4dzb5Ncj9sop/PjbeXzmp8GxDEMef9tzOK57AdZok8PnxqevonxagscLgx4ehdR3eKchkOP+wqrnC7tfU0d4G8xN7nrVN7agb0kXwss1wLNjt7ivo5xhgSxx6yDG1zOXVW88Dqb3ZNuMCGT1zj7+xR7cfglTCmTFza8w1ry0U4DDAVdoARQrUwn313wEjZs/iaee7YKeffph4JARGDNhMt6eOQ8zBzR2n7/uCGuAtw5cx+WVzyHMeHxAGDqvzoxhuwkhhBBCSFaEgZyhpCeQVTYcm4mW+TxB4ar0CrYkc5y1cV3e+u7DsR3I13E5/jJvv41lPUJaYtL2bVj1zgi8GFEPZcNdKNFnM45tX4wZ776Ld0XfxvCIcp6AdpZB22FvC9Pcduaa/bAe5XsbOXxu7ZuOZ5o1QZMmKdjofhQzrtPrjhoVRUWro6E0neZj3ebgcKpR6EUgx17D+WNfY8fnh8xRlONwbmlHz15IRyiaTDksDvQUe3I2nnRfb1cFZadVnkPl72Qg39yFodWNkZ4DENxkKo6kKZBj8e/Jr7H/2L+Iy5BA1kklkNVrf/m3Q/j+2O+4eOWm5QuYFLj8EfpXLoya3d/GZ6dv4Mz8dp6ft6Mwem306VkQQgghhJAcDAM5Q0lfIKsawaaXynlGGXaEodGEA2KQ/LOuq3l9Z+mSNbfw19HPMPFJz6V+PIGZ2JAnZiLhKGiRNJ6DnITUwic5ruDAlBYobAz4FVQZjz1eBcGh96PnsiPwdQBpGWsgF0Xn2TuxLWopZk4aiVd7PYtWDR5A6fxB7tcvqOabt/dI/x2FXqXM81vL98Hmv83bLdzcPhAV3YNBBaHO2AOe53wnA9nYg13Cs47Gz/m3FH/Ot7n+x2F8tm42xg3ojBY1iiPEEYrWc04hNksEclqIw8Xfz5jvl1j8NL2ZZxA8ZzkM2ObFEQOEEEIIIcQWMJAzlHQGsiLmh3fQwhzYyBH+KEbv0YdvNi6NVNW8NFJBdFlzGbfOH8LHK9/FqL7PoEm1Ip7DtI37E+mAM395PBrxEkbO34VzKa5aJgZy3AV8MTUCZY29x45g3D9gC87/+xWmtCgKp6sEHnsjGsd8rORb/57FsW/34JNNq7DgvUiMer0Pnnu0pHm5o5RNfJjydfXa32++9mGoN3K3+/zW28Ti1/daeEa7dhRFz2jzUF5LIDuLPorn+vRF376SfdD2/pB0BXLcmfloF+pZ99D2i5M5H/sWLh3/Ch+tmomxr3VD63rlkT9hb328oXh6ycUssgc5vdzEZ4MqeX5uQXUw9mv/L4EQQgghhGRPGMgZSvoDGbiGfWMfRbg7ch0IqtgJCw9bijDmCKY2DvZETEhzvHssFle39hfP6XU486FsvXboPfxtrNj2Lc56HZaZEchxuPxDFMY+VRlh7sOYXSjbfia+Ma/dFHfxM4xtZlzD14lCtXtg+se/pnhZp0sfvYm2jWqicsn8CBK/MJB1uMJRompdPB7RBX0Gj8X01fvxt+XHGHtyCToWM0dUDn4Q/TaftZwrfglrunjOUw4IaYEZ8bvpLYHstWkK5DicWvy0e+Rv471TsEdUoj3u/+5bgNe7tUa9CgXl10S95gUqPop2PYcgcl40DpyLyaBzkHUyOJBvfoUxdTyvvyO8A5ak+zrjhBBCCCEkp8BAzlD8EciK69/hbfcIzp4wCSr3JN7ceNQdhDe+m4Qm7uvBBiCohjlK8dWt6F/eM8KyM38FNHi6H8bN24R9J654d75mEu5gIMddwfGdyzCuR0OUCjb3YjoLod4rK3FEC/q4fw5gdudqZkCHoWLzPpi0di9OXUv6LG/texMPBxmvn6R6TfOXwv2PPoGne/THG2+9g4VrtmDnN7/g/LXUjkm+iUPTW5iHuKvgyvcw+iw/DGM/f8wvc9GukPmzsY4gbQlkR3ABFBdGAo+3SJjTfP8IgXzjDI4cPIxjp/7ApWu3Ev9sY/7GD5vexBMlPfEeEBCMxlOPJDpP+tbekaiR6DVxILhIdTzWaQDGzVmPz384jyQHHycEcvrMsEC+dQHHf/oVp879hX/018Q4l/q33VjYp457wC7j+Yak+bxsQgghhBCSE2EgZyh+CmRF3NkteLVmmGdeho5wlH6oLqoX9Zwba1wvuVz/reYewus4sHI6Fmzej1NXU1hm3AWs7FYOxYsXT9Ui+czlOFwILyJPk9iy6Lwk/rI98cjhc+PCT/hi0yJMGvQ8HqtSEK6EvZkO5KvWHmOiPV8GiMRewJezeqJ2ITMk1WNcharh8c4DMHbmSnyw81uc+letxdUP0KekCyGFK6Bm03Z4vs8QjJs+H6u37MQ3v17A9bT/aFSMHseK58vfXm/1s6nwaAvUK2ceHq1+NuUHfKyevYm/zkG+ZjwnM4AdDjiDw5C/UBEUK14MhcJc5rI9Ogq2xuxjWuzf2I7X1etdvn4H9B0zGxt2HcVfqdVoVg/kq5vQ29yjb7wXnEGhyFewMIqq92TRgqFwJry3lM6ieHoxr4FMCCGEEEJuw0DOUPwXyAa3fo3Ca/ULi+fKOkIfwbivfBxsKO4PLHoqNMm8/GMo2sw7nWogx55YhKeLxgeNqYrwIg93wJB5n+GEl8fw3vhtG97p0xRlQsy9zm4dCKryIqLc11a6iUsXLqv/ZhBXvsX8LtUQag0wU0fQAxi6w7L721+BHHscM5/wXOM4JR1h96PH8qPCc4/B1X+v+XZUgeUQ69DHhmLZqlVY5a3Lh6OFOSp7hgVy7C94r0Xqr0mAsyDqDojGKdYxIYQQQgixwEDOUPwbyG6uHMbaUc+iZpHbewgd+R9E94WH0jCi8zV8//4czJw5MwOcg+jv9OvLSuFzC4emNkM+43zXSo3x3GuTsXLHrzB2+qaFK798igWjuqFphXxwBlXHgI/+8i0A00PsBexbMABPVFLLNkPZEVQarSJ3JjpvGTE/YkGvFnj88cfRotcC/JjsIb43sWNCOzRX0z3e6g18kOQyXzexc2IEHn+sGZo1bYqmTZqgceNGaNSwIRo2boYnIjqj78hZ+ODIZf+9Bln+HOSb2B35lOc1s9q8OVq0bIP2nXtj4NiZ2LDvTNLDxwkhhBBCiO1hIGcosTj79UfY/P77eP+DL/GbHz+Rx109hx/3bcfWbV/gxwu+JUTmEf96bMb2w3/fjrZrJ/H94XO+xVZqxP2LEz8cx+U7VscWYi7h+Nc7sW3rduw/8e+dC/Q7wa2T2LdFvZ/Vz3DL/tO+HZ4cexYHPtysHvs+tnx5IoW9+cm8TwghhBBCCMlgGMiEEEIIIYQQQoiCgUwIIYQQQgghhCgYyIQQQgghhBBCiIKBTAghhBBCCCGEKBjIhBBCCCGEEEKIgoFMCCGEEEIIIYQoGMiEEEIIIYQQQoiCgUwIIYQQQgghhCgYyIQQQgghhBBCiIKBTAghhBBCCCGEKBjIhBBCCCGEEEKIgoFMCCGEEEIIIYQoGMiEEEIIIYQQQoiCgUwIIYQQQgghhCgYyIQQQgghhBBCiIKBTAghhBBCCCGEKBjIhBBCCCGEEEKIgoFMCCGEEEIIIYQoGMiEEEIIIYQQQoiCgUwIIYQQQgghhCgYyIQQQgghhBBCiIKBTAghhBBCCCGEKBjIhBBCCCGEEEKIgoFMCCGEEEIIIYQoGMiEEEIIIYQQQoiCgUwIIYQQQgghhCgYyIQQQgghhBBCiIKBTAghhBBCCCGEKBjIhBBCCCGEEEKIgoFMCCGEEEIIIYQoGMiE2Iw///wTs+cvwqx51Be//vqg+QoSkjO5cOECtw00kVEb3zffHYQQYh8YyITYjCVLliAoOARTP/6WeumDjVqg3VPtzVeQkJzJypUrkduVR/w3QO1nlxFTEBjoMN8dhBBiHxjIJMOoWbMm7rvvPrfnz583byWZjRHIZas8gM1/gnpp+/4jGMgkx2MEcqkKVcR/A9R+jtuwC3eFhpnvDkIIsQ8MZJJhbN26FRs3bnR78+ZN81aS2TCQfZeBTOwAA5laZSATQuwKA5kQm8FA9l0GMrEDDGRqlYFMCLErDGRCbAYD2XcZyMQOMJCpVQYyIcSuMJAJsRkMZN9lIBM7wECmVhnIhBC7wkAmxGakN5A3Hf0JIyaMQLMWjVG2QnkUKV0FZetFoNmr8zFm33Vt+luYMm0oWvcaghc3XknhtjvkuX8w49PjWCvdl4IMZGIHskwg/3wUIyaNRvNWzVChSiUUKVUBpWo8hnpdxqDvmuNYIz3Ga33d/mTS9iqN2yp/ykAmhNgVBjIhNiPtgRyLBavGo1aZEAQGOJDrruIoUeNRVH74ARQKd3puK1gfrecfx4aEx1zHoGfyq/tCUe/ti9iU7G0Zb/SeaEQ0rYDwVouw6Jw8TXIykIkdyAqBvH7HMjStms+9PQkMKYpi9z+CKnXqofR9BZHbEYAARwGU67IKM07Kj09dX7c/d357lZ5tlT9lIBNC7AoDmRCbkbZAjsOydSNQKVx9aL2rOuqP2IIZP8Yl3G/sVR762hO4x6XuD6+Pjpvi97RIHy5j8O7i99D9zXcxeJu+xznjXDu/B8LUB+yglgxkQiQyPZBPf49u9VUcqwiu1GMlph2Osdx/HfOjZqJRpRB1fz5UfeMg1lsf67W+Bu+d316lZ1vlTxnIhBC7wkAmxGakKZCPfY521YIQ6KqAxjN/Q5Q0zbm/Mar3A8jtcOCupjMx84xxe+bsLZZkIBOSMpkdyBu2jEa5PAHIXX0EJpyQp1m5dhBKuQKQ675+GPmrPE3KZp1tUnIykAkhJHNhIBNiM3wP5DgsfPc53K3CN7T5PMxxh69s9L55qF2oGEo1HI7h3xt7mOU9yNNnv4WOA8eh/5ZriR5vTD9n9Ry0fzYC1WvWQrlaj6FOp9F4OfqMtrfIOo+rWLXjfXTt0REP1K6NCnVaosFL72LE7vh5e6bt0L428qgPnbkrP40I9bhX3v/HMr+UZSATO5DZgbx28YvIp/6N5mk8A7OS286c3I3nmtRBuZo98PKeWHVbStsTtU3auwXdXx+NZyd+hoXu2LRuk05j1vLpeKJVU1So8QgeaN0PXeYfxspEUeqP7VW8sVi6LQrdenXCw4/URbkaTVDr2ZF4eeNZ80vH9G+r/CkDmRBiVxjIhNgM3wP5b7zWvhACHeGoM/VsKntcbmHdSeNDa/zfpUBOZg/OubMY2a8x8jmN8wxDcHfpqihR0nPeYaCrNGqO/BLLEz643p7HQ73fwAOFnQgMLowiZcsgLK8DAQEByFWsPfruMtYlflo13wRDUXPSaa/3HjGQiR3I7ECO+nQSquRV/95DaqP14pNeHkKdzPbEdH3UUPceZ1edSKgetkwfjPKPtUIRlwO5wkuiWNliyOtQ2w5HflTs85EZ09bp07O98szn7SmdUDzYWIYTIUUroei9YchlTJ+3Mhq/94uK5PRvq/wpA5kQYlcYyITYDJ8D+dRedKgWhIA8tdFxyy15mmSVPlxKt8Vi1tQOKOB0IPThfuj/0UVzj8pNLIiagQYVQ9SHzsp4Yulf2jwc6vZSqPHqRrx3zHNO9OovNqL1w+HqPhdK9t2pPmTHYfm+Q5g0rgPuMvZONZqAcR8fwqzvvX8uDGRiBzL9HOQzv2PgMxXgVP9OAxz5UKx+N0SMWorhm3/F8lPC9G6TCVjT5APZWEYwSrSfhyk/GF+k3cLCDZNQs5gTAa5KaLFE39akZ3sFbNg2GdXCjDEcHkbzdw9hhRHPZy5gwpsRKKQiO9e9z+PVb/6T7m2VP2UgE0LsCgOZEJvhcyCf2IzHizgQENIWLx24PTCXd0ofLoXbTn7pjvDA8CfQc6d1YB6Pq9a8jpIuB0Ien2se4h0/D/UBtcV8zE10OGYcFr/zDEKMD5hNZiYcEs5zkAlJmUwPZMNj32NAr6YoaB4J4tGB3PdURtU2/dHpnZ2Yc9z6GGkbc9uUAtlZcQBG/WidPhZzp7ZHuHE6SatFmO/eTvhje3UDY16qAmdAEEq/vAurrdOf/gnd6htBXQyN5/ztvo3nIBNCSObCQCbEZvgcyMffx2OFjECOQN+DGRPIUZ9Eug+tdNUbj/FfnsCcfZq7lqHxvU4E5u+CgUet8whG1ZFHkgwatn7tQBQzPhTXm4J33B+KGciEpEaWCGS3cVi1dzcGjhmOZi0eRdF8LnfQxsdy6P0v4OVtV81ppW3MbZMPZBdK9NmR5DDuTd8uQp27HAgs2B2DfrZOn47t1env0Ll2MAJc1RERdTPR8oznumL/L5h/9HZoM5AJISRzYSATYjN8DuSTO9GuogsBeRuj6+dJ95akrPThNelt65b0QQHjXL6ED8HJGPwYuic6rzgUdab94cWHYgYyIamRdQJZ8+QFvLtuLXq+3AkVihix7EDuyq9h1BHjfmkbc9vkAzkUNSNPJZl+88ntaF1Gbe+CH0cPbVuT5u3ViS1oUdSp/v4ken9lzFNbpiYDmRBCMhcGMiE2w+dAPncWfZ8IQ6CzOB5fHL/XJjljsfDDTzF+50Vzz4z04TXpbcYHQuOcO2e5J9G812tonZwvTcPIr5MbHfu2DGRCfCdzA/kGVh46j0XfXcLaFP59bti3Fk3LqYB1FET9Gca//VS2BRuGomQygSx9ubb55A7zC8Gm6LbD+ELQD9ur49Foeo/3R+EwkAkhJHNhIBNiM3wO5D9j8O7IJsjjcKFYr0+wRpzG9MyveKFJKALVh9dH3zE+fEofXpPetm7Vq7jXqT7E1pyAaWbQpmwqH4oZyIT4TKYG8oltaFXKqcK0AZ7/NKUjVW5irPt83mBUHPKNe+TnwSkE77oV/dyDYCUN5BBUH30U0dr0m39RMVvIGEzrafQ7JH8Z5/P2ytgrXdY8Cucz4bmdiU20HgxkQgjJXBjIhNgM3wMZiP5iFh6+24FchZ9CH/e1R+XpVm4YhrJ5jPP3nsbL+5Pb05v0tk0H5qO2McJryOPovlOY/8lfMG7xJ4jc8QfWuD8wpiGQF/RkIBOSApkayOfO4pVWBRDoCEXVEd9jgzSN26sY3rU0cqnpakb+rv7tX8ewzkXdwfvA2GNa8MZizlst3dcUThrIDuR7Zh2WJZpexa+57chdYywmu0fO9sP26twZ9H0iXD23Qmgw40KS7dXSGZ1RoHAlVHpxE5aq6dOzrfKnDGRCiF1hIBNiM9ISyJv//BfjXqmpPmg6EFZnCIZ9eSPJNKs+W4qmlULcH3ArvPqFOVKrd4G8+dxp9GtbFLkCnCjcdhHeO+GZp8crmDLqCYSrD4y5q4/ExJPJzMOiGMiLeyOf8aGz+TxzdFrvZSATO5C5h1jHYemSvu7B9QLvaYSIpSeE6yCraaLH4f78xpdwT6HvXiNOb2Hy67WR2wjeJxdjnmVE+02HP0NEDbVNCpACWS0nvBGe23wlYfrNJw7jheZqO+QIQaWhxt5p6/Tp2V7FYt60Du7RsfPWGYMJ7oEGTdUyuzfxfDFQfZRnwMH0bKv8KQOZEGJXGMiE2Iy0BbLyl4N4oUVp9zVKA8Mq4cFOI/D8+AV4edLb6Ni1NUre7UCAw4XCLWdi6i/xj/MykJXrP5uDOsWd6oNiEO6p0wPPjF2AvpHT8FT7esjvUh+I81ZF84VnU5xHvFIgr49+w31briIt0G7CAgz6IOnjkpOBTOxApg/Sde48Rr38KEKNbYyzIEo26YmIN2bgpWmL8dK4t9DmqYYoHKy2Ba6yeGTykYSAXr9lLCoYl4VyFEDpNsPQfdIC9B42ADUrFUSR6g8in3iItRP5ixaD696GeGzwLLWticQTDcogt4rY4BrDMPqH+HOF/bG9Up74Bt0bF1Hx7US+h7ri6XEL8fLESLRsVBYutcyg6oMwylxmerZV/pSBTAixKwxkQmxGmgPZ8MSvGD6sKyoVD1UfGK0jtjrUB826aDRsC2aleo3S5ON21acr0aZxBQSpD8gJ81YfKEMqtEOHBcewLmFa3wN58/H96NpQfUB1z9eJwj22WuaXsgxkYgcyPZANz13ClHeHoW71oipWLdsB97YgGPc83AWdlvyCtYke9y+mTOqBcveoYDWnDXQWQrnn5iNy2RBtW3B721F33BZ0faKC+xBsz/xDcG+zNzF8v/U8YX9srzxu+mEfXuz0iDugb08fhmLNRmDoHsvln9KxrfKnDGRCiF1hIBNiM9IVyPGe+huzPvocIxZuwOvz3seoTT9hSaLDDNNjDJbt3oc3F0dh0PwPMHrLcaywHDaZLk+cxdRVGzFo7kaM+vhckusnJycDmdiBLBHICd7E0i8OYOzyTRg0Zx0GL/4UkQmj48tGHz2OyFWbMHjRVkzYfSnpAFyi1zB3y8cYOn8zxmw7q4W3oQrkp/OpQA5DvXf+0u4z9HV7FYc1B77BmKXG9B9i/Ofn5fhN47bKnzKQCSF2hYFMiM3wSyDbTAYysQNZK5CzipfxatswBDjC0WC25XxlG8hAJoTYFQYyITaDgey7DGRiBxjIiV1/4gaiD2/Fk5VdCHBVR0SU5TBoG8hAJoTYFQYyITaDgey7DGRiBxjIFt3XdA9HbuOydQEO5Kk+HON+FabLwTKQCSF2hYFMiM1gIPsuA5nYAQayxdM/4NW+PVC/1TNo3Gs6hn9xXZ4uB8tAJoTYFQYyITaDgey7DGRiBxjI1CoDmRBiVxjIhNgMBrLvMpCJHWAgU6sMZEKIXWEgE2IzGMi+y0AmdoCBTK0ykAkhdoWBTIjNMAK5ZLnKmLn7GPXSxzq/iLYRT5mvICE5EyOQi5UuJ/4boPbzlbeXIuSuUPPdQQgh9oGBTIjNMAI5T1BeBAQEUB9s+WRr8xUkJGdiBDK3DdSq8X4ghBC7wUAmxGYYgVymUnWsP3mTemnbPkN4iDXJ8RiBXLJcJfHfALWfI1du4x5kQogtYSATYjN4DrLv8hxkYgd4DjK1ynOQCSF2hYFMiM1gIPsuA5nYAQYytcpAJoTYFQYyITaDgey7DGRiBxjI1CoDmRBiVxjIhNgMBrLvMpCJHWAgU6sMZEKIXWEgE2IzGMi+y0AmdoCBTK0ykAkhdoWBTIjNYCD7LgOZZCd69OiB1157Dbt27cL//M//mLemDgOZWmUgE0LsCgOZEJvBQPZdBjLJTqxYsQJt2rRB3rx5kS9fPjz//POIjo7G9evXzSlkGMjUKgOZEGJXGMiE2AwGsu8ykEl25ObNm9iyZQt69uyJggULwuVyoUWLFpg3bx7+/FO9sTUYyNQqA5kQYlcYyITYDAay7zKQSXbnf//3f/HVV19h6NChqFChAgIDA/Hwww/jrbfewo8//uiehoFMrTKQCSF2hYFMiM1gIPuuEcjVqlfHpEmTMHXqVEycOBFvv/22Oy7eeecdjBs3DjNmzMCYMWMwc+ZMvPnmm5g9ezZGjhyJuXPn3rE/R40a5V7u6NGj3eszduxYvPvuuxg/frx7fSdMmIBp06YhMjLS/TwmT56c6DlNnz494TkZj3nvvfcy/TkZf8Y/J2M9jOdkrJexfsZ6GutrrHf8czKej/G8jP83bjPuM5638fzjn5MxD2NexjyNeRuvm7fr4q8/jeUar6mxHsZrLD0n42difU5TpkwRn5PxMzaek/Eztz6nOXPmJLsOffr0QUREBIoVK+aO5fDwcFSqVAn33ldW/DdA7ScDmRBiVxjIhNgMBrLvGoH8yKP18emnn+Kzzz7Dtm3b8Pnnn+Pjjz/Gjh07sHXrVuzcuRMfffSRe2CkDz/8EF988YX78NY9e/Yk+fODDz5I+HtK00l/Jjd9/O27d+92L99Yj/j1Mv401tdYb2P9P/nkE2zfvt39fOKfk3Fbep6T9U/rdNbn6u2f+nKsz8lYn/jnZKynsb7SczL+37jN+vOSnpMxb+sy9T9TW9fk/kxtPsbtKT0nY329eU7GtPGPTe45JbeO8X8awVyyZEkEBASgUPH7xH8D1H4ykAkhdoWBTIjNYCD7Lg+xJjmJ//u//8O3337r3stcrVo1dxjff//9aNu2LUqUqyj+G6D2k4FMCLErDGRCbAYD2XcZyCS7ExMT49773LdvXxQtWhROpxNNmjRxH5Z9+vRp9zQ8B5laZSATQuwKA5kQm8FA9l0GMsmOXLlyBatXr8bTTz+N0NBQt8888wzWrFnjvk+HgUytMpAJIXaFgUyIzWAg+y4DmWQnjHOKGzdu7N5LbAzC9fLLL7vPX/7Pf/5jTiHDQKZWGciEELvCQCbEZjCQfZeBTLIT/fr1c49m/d1337nPN/YWBjK1ykAmhNgVBjIhNoOB7LsMZGIHGMjUKgOZEGJXGMiE2AwGsu8ykIkdYCBTqwxkQohdYSATYjMYyL7LQCZ2gIFMrTKQCSF2hYFMiM1gIPsuA5nYAQYytcpAJoTYFQYyITaDgey7DGRiBxjI1CoDmRBiVxjIhNgMBrLvMpCJHWAgU6sMZEKIXWEgE2IzGMi+y0AmdoCBTK0ykAkhdoWBTIjNYCD7LgOZ2AEGMrXKQCaE2BUGMiE2g4HsuwxkYgcYyNQqA5kQYlcYyITYDAay7zKQiR1gIFOrDGRCiF1hIBNiMxjIvstAJnaAgUytMpAJIXaFgUyIzWAg+y4DmdgBBjK1ykAmhNgVBjIhNoOB7LsMZGIHGMjUKgOZEGJXGMiE2AwGsu8ykIkdMAI5b0go8hUuSilC8xVAUN685ruDEELsAwOZEJvBQPZdBjKxA0YgFy5xH4Yv3UIpnhv8FoJD7jLfHYQQYh8YyITYDAay7zKQiR3gIdbUKg+xJoTYFQYyITaDgey7DGRiBxjI1CoDmRBiVxjIhNgMBrLvMpCJHWAgU6sMZEKIXWEgE2IzGMi+y0AmdoCBTK0ykAkhdoWBTIjNYCD7LgOZ2AEGMrXKQCaE2BUGMiE2g4HsuwxkYgcYyFnEc/9gxqfHsVa6LyXPnMaIkUPw7JzDmL18GtoNXof3TgrTeSkDmRBiVxjIhNgMBrLvMpCJHWAgZ77Re6IR0bQCwlstwqJz8jSyN/HOW21RoOCT6LUjBpsOrkOT+wqgyut7sFKcPnUZyIQQu8JAJsRmMJB9l4FM7AADOfNdO78HwhwBCGrpWyCv3/4OatwThsqDD2Cd+7ZYzJoUgbvvqoMO0f8mmd4bGciEELvCQCbEZjCQfZeBTOyAb4F8E+Nea4QSVbqh3/444X6aFtMUyGd+Q99WReAs1RtDDlt+Fsf3oP39QchbNxLT0nCoNQOZEGJXGMiE2AwGsu8ykIkd8C2Qb2BUz7LIFdwSvfbGCvf7Ygymz34LHQcvQ+T+L9G7WxtUfrgRaj43DkN33TSnuY45q+eg/bMRqF6zFsrVegx1Oo3Gy9FnsD7J/JS//obRE4agYbNGqFizGep1n45R+65h1pLp6DhwLF5c9wc2uac1lz1wHPpvuZZkPtF7t6D766Px7MTPsDBRsPqyPjFY+P4SPNNZTftQTZSv3Rz1uozFK2raDZZpjPXo0L428qhAzl35aUSodXrl/X8s85FdtXogSriCUKb/HnPvcbyxmDGmOfI6S6DRrPjn670MZEKIXWEgE2IzGMi+y0AmdiDzAvk6Bj2TH4F5a6NGgxLIlacACpYoDFfeenhu6y1sPncWI/s1Rj5nAAIcIbi7dFWUKFkQuVVIBrpKo+bIL7HcGq8/70OXJsWRy7g/T0EUKVcW4XkdcJXvhjYdKsEZEIyqI35AlHXZAaGo9/bFJBG5PmooSrkC4KoTibdPm7f7tD5xWLx0AEqHONS0wQi/r5qatgCc7nWriMYzTyDaPV38eqh5JhiKmpNOpxy2al36tyui5lUHz36kXivt/uh9c1DzLgfy1p+Od+PX30sZyIQQu8JAJsRmMJB9l4FM7ECmB7KKwsD8TdEx6qKKxmuYsW43Zp+JxaypHVDA6UDow/3Q/6OLZtjexIKoGWhQMURFaWU8sfQvMyRvIHJgXeRxOBBcox8G7rzqXsbqnevx5EP5VDQ71HLSE8g+rs/pw+hSNxiBzjKoP+2oZ2Tqc5cQ+UYLhBt7iu8fhchTxuPjsHzfIUwa1wF3qdvzNJqAcR8fwqzvk0av1U1fL0Ldux3IXXUEJrjno3nmKLrXD0FA3kbosj0m6f0pyEAmhNgVBjIhNoOB7LsMZGIHUgzk00cwdPQUdBkx2TQSLR4piMA81fDIgEmW26fhlejzKe/1TGJ8pDqQ75n1WGG97+SX6FAtCIHhT6DnzqSBt2rN6yjpciDk8bmYc0bd9stWtLzPiYA8D6P9xsSHTK//eCKqBDsQkJ5A9nV9jr+PxwurZQa3QM89li8Sft6CiMYt8cjz72L80duP9/Uc5JXzeiCfiv58HaOwSrjffa54n6pwOsJQa9LvPv1cGMiEELvCQCbEZjCQfZeBTOxAioF8PApN8hlxaT0EWDIYlYcdMuPTW+MjNRjVRh5J9NioTyJRJa8K1HrjMf7LE5izT3PXMjS+14nA/F0wUIXmhi1jUD5PAJyV38Bb+sBUZ3727E1NRyD7uj6bTx/C83VCEOhwoXCTIeiz4nssSWHALN8C+RamDKqD3Or5VBzyTTKveRzmT2qLoAAn7u31iXaOcsoykAkhdoWBTIjNYCD7LgOZ2IEUA/ncebwTvRPj1u8w3Y6ebYsjV95H0W7e55bbd2HyPs9hzd57O1LrTE08mNS6JX1QwDjXV4xxi8GPofuuWKxd1Bv5jMB8fB7mJwnMGxjepQRypSOQfV0f9znIK4eiUsKXCw7kKVYHdXtOxqtRv2G1tjzfAjn++RjnKie/dzh+nnnbrki8dz4VGciEELvCQCbEZjCQfZeBTOxA5p+DnDRSjbgzzsl1lnsSzXu9htbJ+dI0jPw6LpXAvIkxvSv6NkjXhqEoaQlkX9cnfj6rdm/Di/26oGpp4zxoM6IdIbi3eSTGfX97Ot8C+TqGPFvI88XCtOQPa1+7+CXk93qet2UgE0LsCgOZEJvBQPZdBjKxA1kxkNetehX3OlWg1pyAae5BslJ2/fohKGEEbb0pwqjN1zDkuSJqOYkDeXD83utpSS+FtG5FPxQylh+/B9nH9UnimX8wK2o1uvWKQCn3XmUXSvbd4Rm8S+lbIKufQY8yyBUQgofe+s0cDTupq+d0QYgxaNlTa5I5T1mWgUwIsSsMZEJsBgPZdxnIxA5kxUDedGA+aoc5EBjyOLrvFJZz8heMW/wJInf8gTUqKDcdWoH6+dX0+Z9Bv4O398y6PbUPTz8QpKI0cSAP61xULTsED4w9pkVmLOa81dJ9XeL4QPZ1faK//Ag9XxuIFoM2YUGi4I3D4hmd3YeD52n4LmYZA3qp29cu6OlDIMfgnRGN4QoIQukBX1quqWw1FrPGNkceFeKlXvlCvmZ0MjKQCSF2hYFMiM1gIPsuA5nYAd8COQbT3x6M5l0nY9QhLUR9NoXDnM+dRr+2RZErwInCbRfhvROW+/68gimjnvBcLqn6SEw0Br86dxGDnyuNXI4QlOuzHUsTIjMGc97tjMLu84etgXwLk1+vjdzGCNpPLsY8M1QNNx3+DBE1QtR63Q5kX9cnes9MPHSXCurw5ui2/aZl2ljMntgGdzkcuLvDWiw3b1+72DyHurl0DnVS1yzvhyJOB4JbLcFicfprGN6lpHo9CqHBzL+E+5OXgUwIsSsMZEJsBgPZdxnIxA74Fsj+NJXzgD+bgzrFnQh0BOGeOj3wzNgF6Bs5DU+1r4f8LhWfeaui+cKzCY+L3rMcDUu7EOgshHJPjcILU+aj+0vtUPwuJ1x5g9RyrIGs5r9lLCrkdSDAUQCl2wxD90kL0HvYANSsVBBFqj+IfJZDrH1en3PnMbSzcd6zA3lKt0DLYbPx8ttqffo9i9J3q2mDH0K7df/cfq7Rb7gHBctVpAXaTViAQR8kfT0SeSQKTe91IleJPhh+TLjf2Gt+v3rOd0eg7wHfvshgIBNC7AoDmRCbwUD2XQYysQNZNZANV326Em0aV0CQwxzgyj3IlRMhFdqhw4JjSS5ftHr7CrSsWxy546d35EOpiLfRs2tlbZAuw38xZVIPlLtHRa85b3dcPzcfkcuGJL4OsvkYn9bn6H682LEO8ql4TphWBXPeMk+g3dyjiac9vh9dGxZBLvc0ThTusTWVSzP9ixHdyyOXqyJarUw6eviGreNRMY8T+Z5alcwe5uRlIBNC7AoDmRCbwUD2XQYysQOZF8jeGoNlu/fhzcVRGDT/A4zechwrLIdEJ/HcVczd8gmGLdiMMZ/+gfV/3sS4PlWEQPYYffQ4IldtwuBFWzFh96VkB726rS/rE4dV+7/FuGXRatrNePP9n7EsuUG+TpzF1FUbMWjuRoz6+FyS9dTdsG0iqoQ4UahTdMKh2h5vYPwrDyJ3ngcQsd7XS28xkAkh9oWBTIjNYCD7LgOZ2IGsH8jpNeVAzraeu4hhXSrCefeT6P3F7YHDNh1ahybFXCjQdgnmpvRFQjIykAkhdoWBTIjNYCD7LgOZ2AEGcvY1+qsVaFAiGCV6bjX3It/ApMGPIKhgK7zw2a0k03sjA5kQYlcYyITYDAay7zKQiR1gIGdnYzF/bk8Uu/tRPLv5GqJ2zkbNwiVRJ/LHZC7/lLoMZEKIXWEgE2IzGMi+y0AmdiDnB7KKyKiVeClyHgZ9+HfKo0NnS//BtEUL0G/NMczdtBp9Zu/14lrKyctAJoTYFQYyITaDgey7DGRiB3J+IFNfZCATQuwKA5kQm8FA9l0GMrEDDGRqlYFMCLErDGRCbIYRyM7cLkzYuId6aZU6DRnIJMdjBHJgoEP8N0Dt5zMDxyAgINB8dxBCiH1gIBNiM/bs2aM+9AQgKG8w9VLj9RoxYqT5ChKSM9m/f3+23zbkcjqRO7dLvC+zdObO7V4v6b6srPFeqFWnrvnuIIQQ+8BAJoQQQki258SJE+6oc6oY/d///V/z1szlP//5j3udDP/880/zVkIIIVkZBjIhhBBCsj0dO3ZE3bp1ER4ejuXLl5u3Zi6zZs1CoUKF8OCDD6J3797mrYQQQrIyDGRCCCGEZGsOHTqEXLly4ejRo5g+fTpKlCiB//7v/zbvzRyuX7+OggULYtGiRfj666/de7Z//fVX815CCCFZFQYyIYQQQrI1zZo1Q7du3dz/HxMTg5IlS7pDOTMZO3YsKlasiLi4OPffn3rqKURERLj/nxBCSNaFgUwIIYSQbMvnn3+OPHny4Ny5c+YtcB9inT9/fly9etW85c5y6dIl3HXXXXj//ffNW4Djx4+79yIfOHDAvIUQQkhWhIFMCCGEkGzJ//3f/+Ghhx7C66+/bt7iwRikq1q1ahg+fLh5y52lf//+qFOnjvm327z44oto0KCB+TdCCCFZEQYyIYQQQrIl69evR1hYGP755x/zltts3boVefPmxYULF8xb7gy///47cufO7b6kno6xLsHBwfjoo4/MWwghhGQ1GMiEEEIIyXbExsaibNmymDhxonlLUho2bHjHR4/u1KkTWrZsaf4tKSNGjHDv3c4ql6IihBCSGAYyIYQQQrIdc+bMwb333oubN2+atyTlTo8effjwYfdo2j/++KN5S1L+67/+y31+dFa5FBUhhJDEMJAJIYQQkq34//6//w+FCxfG/PnzzVuSxxg52hhB+k7QvHlzdOnSxfxb8rz99ttZ4lJUhBBCksJAJoQQQki2Yvz48Shfvjz+53/+x7wleYy9x8ZeZGNvckaya9cuuFwunDlzxrwlebLKpagIIYQkhYFMCCGEkGzD5cuXERoaiujoaPOW1DHOQzbOR84ojNG0a9asiddee828JXVWrFiRqZeiIoQQIsNAJoQQQki2wYjQWrVquaPUW4zRo40RrY2RrTMCI9aN0bT/3//7f+YtqWMM0lW9evVMuxQVIYQQGQYyIYQQQrIFxuHLxmHMxuHMvmKEaEaMHm0c5m0c7v3WW2+Zt3jPxx9/nCmXoiKEEJI8DGRCCCGEZAs6d+6Mpk2buqPUV41rJRt7ef09evS8efNQoEAB9+jU0nJT85FHHsELL7xgzo0QQkhmw0AmhBBCSJbnP//5DwICAtKtsRfZnxjXYpaW46vGwF2EEEIyHwYyIYQQQrIFp06dwg8//JCsxkBZAwcOFO+L19iT7E/++usvcTnxGgOENW7cWLwv3rNnz5pzI4QQktkwkAkhhBCSI2jSpAmmTZtm/i1r8Oabb6Jdu3bm3wghhGR1GMiEEEIIyREwkAkhhKQXBjIhhBBCcgQMZEIIIemFgUwIIYSQHAEDmRBCSHphIBNCCCEkR8BAJoQQkl4YyIQQQgjJETCQCSGEpBcGMiGEEEJyBAxkQggh6YWBTAghhJAcAQOZEEJIemEgE0IIISRHwEAmhBCSXhjIhBBCCMkRMJAJIYSkFwYyIYQQQnIEDGRCCCHphYFMCCGEkBwBA5kQQkh6YSATQgghJEfAQCaEEJJeGMiEEEIIyREwkAkhhKQXBjIhhBBCcgQMZEIIIemFgUwIIYSQHAEDmRBCSHphIBNCCCEkR8BAJoQQkl4YyIQQQgjJETCQCSGEpBcGMiGEEEJyBAxkQggh6YWBTAghhJAcAQOZEEJIemEgE0IIISRHwEAmhBCSXhjIhBBCCMkRMJAJIYSkFwYyIYQQQnIEDGRCCCHphYFMCCGEkBwBA5kQQkh6YSATQgghJEfAQCaEEJJeGMiEEEIIyREwkAkhhKQXBjIhhBBCcgQMZEIIIemFgUwIIYSQHAEDmRBCSHphIBNCCCEkR8BAJoQQkl4YyIQQQgjJETCQCSGEpBcGMiGEEEJyBAxkQggh6YWBTAghhJAcAQOZEEJIemEgE0IIISRHwEAmhBCSXhjIhBBCCMkRMJAJIYSkFwYyIYQQQnIEDGRCCCHphYFMCCGEkBwBA5kQQkh6YSATQgghJEfAQCaEEJJeGMiEEEIIyREwkAkhhKQXBjIhhBBCcgQMZEIIIemFgUwIIYSQHAEDmRBCSHphIBNCCCEkR8BAJoQQkl4YyIQQQgjJETCQCSGEpBcGMiGEEEJyBAxkQggh6YWBTAghhJAcAQOZEEJIemEgE0IIISRHwEAmhBCSXhjIhBBCCMkRMJAJIYSkFwYyIYQQQnIEDGRCCCHphYFMCCGEkBwBA5kQQkh6YSATQgghJEfAQCaEEJJeGMiEEEIIyREwkAkhhKQXBjIhhBBCcgQMZEIIIemFgUwIIYSQHAEDmRBCSHphIBNCCCEkR8BAJoQQkl4YyIQQQgjJETCQCSGEpBcGMiGEEEJyBAxkQggh6YWBTAghhJAcAQOZEEJIemEgE0IIISRHwEAmhBCSXhjIhBBCCMkRMJAJIYSkFwYyIYQQQnIEDGRCCCHphYFMCCGEkBwBA5kQQkh6YSATQgghJEfAQCaEEJJeGMiEEEIIyREwkAkhhKQXBjIhhBBCcgQMZEIIIemFgUwIIYSQHAEDmRBCSHphIBNCCCEkR8BAJoQQkl4YyIQQQgjJETCQCSGEpBcGMiGEEEJyBAxkQggh6YWBTAghhJAcAQOZEEJIemEgE0IIISRHwEAmhBCSXhjIhBBCCMkRMJAJIYSkFwYyIYQQQnIEDGRCCCHphYFMCCGEkBwBA5kQQkh6YSATQgghJEfAQCaEEJJeGMiEEEIIyREwkAkhhKQXBjIhhBBCcgQMZEIIIemFgUwIIYSQHAEDmRBCSHphIBNCCCEkR8BAJoQQkl4YyIRYuH79Oi5cuEAppXfEmzdvmlsf4g8YyIQQQtILA5kQk//5n/9BQECgMoBSSu+IjzVvYW6BiD9gIBNCCEkvDGRCTP77v//b/YF1zLrPseTQBUopzVA7vj4WVas/YG6BiD9gIBNCCEkvDGRCTOIDecaun7H5T1BKaYbad8pC3P/gQ+YWiPgDBjIhhJD0wkAmxISBTCm9kzKQ/Q8DmRBCSHphIBNiwkCmlN5JGcj+h4FMCCEkvTCQCTFhIFNK76QMZP/DQCaEEJJeGMiEmDCQKaV3Ugay/2EgE0IISS8MZEJMGMg51w1blyCi92to3cvqQLR+cRDavjwCHd+Ygf7LvsWik/LjKc0IGcj+h4FMCCEkvTCQCTFhIOdc187vgTCHfB3a2zoQ9sCL6PfZNXEelPpbBrL/YSATQghJLwxkQkwYyDnX+EDO03Q6pu49gTn7bjt79xFMXrMcTzcvj9wOB4IeHoOJv8rzodSfMpD9DwOZEEJIemEgE2LCQM65xgdyUMtFWHROnmbzsd1o/0AQApwl0GzhP/I0lPpRBrL/YSATQghJLwxkQkwYyDlXrwL5z5sY17cqnAHBqDTsO0T9GYPps99Cx8HLELn/S/Tu1gaVH26Ems+Nw9BdN83HxGHZtnV4vsezqFG7Fso93BS1nx2Bl9b/jvUJ843DwrVz8OzA0eg4ejNmnY6/3eOmI3vxypAxeGaAcV70cDzz+nQM+yI20TQeb2L6nInoOHAsXlz3BzYluZ9mNxnI/oeBTAghJL0wkAkxYSDnXL0N5DG9K7oDufqoH1UgX8egZ/IjMG9t1GhQArnyFEDBEoXhylsPz2295Z7+vXd64r4wBwIcTgTfWwnFSxZEbrWcQGdJPDRiD5aby9p0MArNyrgQ4CyCmhN+xIb4ZZ47j+Hdq7sP7Q5vNA7dniuDXAFBKD1gjyWwTX/9BK3LqXnkeRDtN8YHOs3OMpD9DwOZEEJIemEgE2LCQM65ehPIm45sQ+tKKkBdldFm7Q11mxnI6j0RmL8pOkZdRPSf1zBj3W7MPgNs+GQqqt/tQGBwNTSadABL1W2b1f2zFr+B6gWdCFTzeWLZX+ae3jgsnN8bxVwByFXwSbzwuRHYcVgwv5fntsJt0XvHLaxZ/RqKq787y/THyGOJ12/1iv641xmA3A+8ichTie+j2VMGsv9hIBNCCEkvDGRCTBjIOdeEQbqaTMOk3b9g1hfxHsN7n+zDm7Omo0W94sjlcOLupjPxrvsw6PhAdiDfM+uxItE8r2N070pwBrhQotc2rEx0Xwxmjm+FuxwOhDSfhznucFaeO4chnYw91A6EN3kX079YiYalnAhwlsQj035BlDHNiS/QvqpxHnRxNJ5z0XIY9b8Y3tWzd7nCoK9v74Gm2VoGsv9hIBNCCEkvDGRCTBjIOdf4QDZ+vsnqCEbhRiPwxv7483/jAzkY1UYe8QRsvKcP4rmHVcgae5vXJT3cedPX81E7xIHA/F0x8Kjl9m834nHjMGlHfhS5r4gKXieKdFiFufER/ectTBlcF7mNS061WoT58Xu7j27C48VVTOd9FJ23xSTMj2ZvGcj+h4FMCCEkvTCQCTFhIOdc4wPZWaEtWr40GG1N2/UZgogBY/H8+KUYtvkkVic6/Do+kENRZ6o2KNaJLWh+rwrW4FbovU8YUOvkdrQ2zjkOfhzdd1nvj8OihS+5D6s2rrvsLNcbgw/GWe4Hoj6fimrBKq5D1GN3eh67XK3/PU4HXHUn421tkC+afWUg+x8GMiGEkPTCQCbEhIGcc/VukC7d24Fc723r4c7K4xvR7B4HAkIi0FcLXLcnd6BdRRXIeZuh247EAb32o0hUC1ePVYF8V4NpmH7S8jjDM7+iV9NwtdwgVBj8NTac+wsDny6GXI4QVH/TGDxMm55mWxnI/oeBTAghJL0wkAkxYSDnXP0eyCe3o41xqHTehnj+U+GQ51+i0LSgGdDfWgL62F48WycfAh1OOF0O9WdBPDj6kDZidRzmT2uPUGOPd+VhGLd/JRqoeQWGtEDP3cLeapptZSD7HwYyIYSQ9MJAJsSEgZxz9XsgnzuDvk+Eq8AtgHrTziS+T7kuahhKGaNRVxqK8Ql7iP/BuH51EORwIG/NkRg2uy9KGJGcvwW6fZL4POZNh1ahYWEV2K5qaNY9Qq27ekzTme7Rs63T0ewtA9n/MJAJIYSkFwYyISYM5Jyr3wP5z1jMm9Ye4SpcXfe/jlGHLHuJTxxB7xbFkCvAhfte3oW17tvjsHTV6yidVwXx3Y3Racs1FdkX8Ea3qnCqeYQ1nIZpJ+LnbXgZQzuVUvNQ0zuNPc35UGvSSUQn3E9zggxk/8NAJoQQkl4YyISYMJBzrv4PZOXxg+jWyBiJ2oHQ6s+i/ej5eHnCBDSvXxq5VfTmqfIKhn3jCedN332AJyoFuQ+pfmDUt1hnzmPToS14oqLLvSf6gZG3bzdcvXIAiroH8wpQUf0U+h4QznWm2VoGsv9hIBNCCEkvDGRCTBjIOdcMCWTlpsN70atjHeRzGYNumTHrKoIybcdh+F7zsOlzZzDoOeP6x07ke2wm3j1lnUcclizth5J5HAjM9xi6brtx+74TOxFRyaXm6UBY6yVY6PV60+wiA9n/MJAJIYSkFwYyISYMZJo247B6/0GMWRKFIUs/w+S9l/1zKPS5P/BKK+M85yJoMOO8GOg0e8tA9j8MZEIIIemFgUyICQOZZiU3fb0E9fI7kKvkSxj2ozwNzd4ykP0PA5kQQkh6YSATYsJAppnvDaw9HofNv/6CQd0fgssRjHKv7k10bjLNOTKQ/Q8DmRBCSHphIBNiwkCmme6pfXj6gXDkMc5JDnAgT9VXMeJ7Ds6VU2Ug+x8GMvE3165dQ88XeqF9h6cpddur94uIi4sz3yEkJ8JAJsSEgUwz36uYMP4l1G/VEU37zMDor24J09CcIgPZ/zCQib85fPiw+7NBuz5DEPHyMGpzmz3Xy/1++PNPtREnORYGMiEmDGRK6Z2Ugex/GMjE38QH8qY//lf8d0zt5Yqf/h8D2QYwkAkxYSBTSu+kDGT/w0Am/oaBTK0ykO0BA5kQEwYypfROykD2Pwxk4m8YyNQqA9keMJAJMYkP5FdnrkLkB19RSmmG2q7vUFSr/oC5BSL+gIFM/A0DmVplINsDBjIhJvGBnMvphDO3i1JKM1RHrlwoX6GSuQUi/oCBTPwNA5laZSDbAwYyISY8xJpSeiflIdb+h4FM/A0DmVplINsDBjIhJgxkSumdlIHsfxjIxN94G8gbti5BRO/X0LqX7kC0fnEwIgaMQ9fINRiz6zI2CY/PWG9hyrShal2G4MWNV5Le//NRjJg0Gs1bNUOFKpVQpFQFlKrxGOp1GYO+a45jjT69T6ay7CT6Or2fPPcPZnx6HGul+ywykO0BA5kQEwYypfROykD2Pwxk4m+8DeS183sgzBHgnjYlA/OWRa0Re7D8nDyfjPE6Bj2TH4EBoaj39sVEgb5+xzI0rZpP3edAYEhRFLv/EVSpUw+l7yuI3MbzcRRAuS6rMOOkdX6+mPyyZX2dPv1G74lGRNMKCG+1CItS+bkwkO0BA5kQEwYypfROykD2Pwxk4m98DeQ8Tadj6t4TmLPP4t5jeHvzR3i5f1sUzatCNM/9aLPmX3E+GWMy0Xn6e3Srr+JYRXClHisx7XBMosfMj5qJRpVC1P35UPWNg1ifcJ8v+hq8MXh38Xvo/ua7GLztunC//43/2QW1ZCATDwxkQkwYyJTSOykD2f8wkIm/8TWQU46sa4gcWBcuhxP5O0ZhpThNRihH6oYto1EuTwByVx+BCSf0x3hcuXYQSrkCkOu+fhj5qzxNyt75PcK+ykAmOgxkQkwYyJTSOykD2f8wkIm/8W8gA+ujhqKkCk5X7UhMO63ffx1zVs9B+2cjUL1mLZSr9RjqdBqNl6PPyHtvz1zElDnT0a5jBB6oUwdlq9dC5UbPoPng5Yj8LtYyrRypaxe/iHzGXu/GMzDrTPy0mid347kmdVCuZg+8vMeYZwymz34LHQeOQ/8t15JMH713C7q/PhrPTvwMC92vg3XZpzFr+XQ80aopKtR4BA+07ocu8w9jZaLXK6X5+/j6/BmLpdui0K1XJzz8SF2Uq9EEtZ4diZc3nkWU+37Psjq0r4086nXIXflpRKjlvvL+P9p8bstAtgcMZEJMcnYgc4COVPVygA5/mHUHc+H7JFX9+D5hIPsfBjLxN/4O5JWLeuMep4rSBu9gpjVKz53FyH6NkU/dF+AIwd2lq6JESc95wIGu0qg58svE5y2f/gX9O1R2h12gMwwFylZHqTJFEeRwqPV1IO+Db2Ds0fjp5UCO+nQSquRVjw+pjdaLT3p5CHXKe4SNLwCMPc6uOpFQPWyZPhjlH2uFIi4HcoWXRLGyxZDXWFdHflTs85EZ09bptfn7+vqo+bw9pROKBxvLcCKkaCUUvTcMuYzp81ZG4/d+UZEcv6zb54gHqOXWnHQ62d+9DGR7wEAmxCRnB3Lyv9A4QIdvA3T4w/gPUrd/Icve+cFc+D5JSX+/TxjI/oeBTPyNXwP56D50blhQbbeCUO61fdiQcF8sZk3tgAJOB0If7of+H10093DexIKoGWhQMURFYGU8sfSvhG3dsgW9UEjFYq7iT6Hnh5cQ7b49Bku3vIu6xZ1qm1wUTeZdNuefzPbyzO8Y+EwFON3b8HwoVr8bIkYtxfDNv2L5KXOaJKa87U0+kI1lBKNE+3mY8oOxJ/oWFm6YhJrF1Lq6KqHFkvjnJs3f99dnw7bJqBamfl/d9TCav3sIK4yfyZkLmPBmhOd1u/d5vPrNf7B83yFMGtcBd6nXIE+jCRj38SHM+v6Wex6SDGR7wEAmxMSWgcwBOtz6cv6RP4xfXtYbzIXvk5T09/uEgex/GMjE3/gayLmrPY+OIyaji9Vh49C+ZxfcXzZcbeMcyFOpL4YejLv9+JNfokO1IASGP4GeO63bV4+r1ryOki4HQh6fiznuvc4xeG/WUDRq/hgeGf21JbQNr2N4lxLIFRCCB8YcM8M5he3rse8xoFdTFFS/b4zn6dGB3PdURtU2/dHpnZ2Yc9wyfSrb6pQC2VlxAEb9aJ0+FnOntke4Q4Vvq0WY796uCvP3+fW5gTEvVYEzIAilX96F1dbpT/+kfp8ZQV0Mjef87b7Nl207A9keMJAJMbFjIHOADo+ZFcgpLy8zBnPh+yQlMyKQS5S6DzNnzqR+0tiGM5CJP/E1kD2BKRsYUgZVnpmEkfsS76GM+iTSfaizq954jP9S+9LUcNcyNL7XicD8XTAw4bBpwTNXsWDbVjzforgK5GBUHXnE3NOa2vY1Dqv27sbAMcPRrMWjKJrPpaaNX28Vr/e/gJe3XTWnTXleyQeyCyX67EjyBeqmbxehzl0OBBbsjkE/W6e/PX+fX5/T36Fz7WAEuKojIupmouUZz3XF/l8w/+jt0GYgEx0GMiEmGR/I5sATg5chcv+X6N2tDSo/3Ag1nxuHobviN+AcoCPl+Wf+AB2ip3/AoGFj8Iz62U76Rbhf09tfxskP5sL3SbZ8n2gagRyerwDq1atH/WTdunXx1VdfmVv1rIERyPfdd597vWj2c9myZe7PBt4Gcp5HR2HY+h0Ypxy7Zgv6D+6EMvmccBZrgY6r/xDiFFi3pA8KGOfWJkRpMgY/hu67bm+zN/18FKOmvIU2zz2Lh+s+hHvvCVbb0PjpVSCP+MHLQNY8eQHvrluLni93QoUiRiw71HbvNYw6Ytyf8rySD+RQ1Iw8lXTZJ7ejdRmXem6Po4f7uSWdv8+vz4ktaFHUqf7+JHp/Zf0dJ8tAJjoMZEJMMj6QzY1+3tqo0aAEcuUpgIIlCsOVtx6e23qLA3QkPLdk5p9FBugQPb4JzQqq5YS0xyuHLIfNJaO3v4zFwVz4PjHnkQ3fJ5o8xNoerFixwv2ecblcNBvqdKrQUj+/tJ+DHIclq4ehUrjapt3TFM9GX0qy3TAea5wD6yz3JJonGbzR4kvTMPJrz++YqD2r8FhV45BtY3vkgFNtL0vVaYsmL0WifavSnj3IKQbyDaw8dB6LvruEtSn8Htqwby2allMB6yiI+jOMx6aybd9gfrErBHKdacIXBCd3oF1FNf+8TdFth7FXN+n8fX59jkej6T3G7+QI9LUeyp6MDGSiw0AmxOSOBbJaRmD+pugYdRHRf17DjHW7MfsMB+jILgN0iGbEHmRxMBe+T7L1+0STgUxI1sc/g3TdxDtvtUE+tW1yluuJQfsT79Vct+pV3Ku2N66aE4RLPwme+wOvtS+OXA4X7m0ViWFbf8eqM/H338DI7l4E8oltaFVKbVfzNsDznyY9r/e2NzHWfT5vMCoO+UbN7zoGm/OSgnfdin7ubWfSbXsIqo8+av4OsviLitlCxjb4afRzf8GcdF19fn2MvdJljehujK6fCc9NfeayrgcDmegwkAkxuXOB7EC+Z9ZjhfU+DtCRbQbo8Ifxy/N5MBe+T3LU+4SBTEjWx2+jWJ/+GS+1NM4NdqJw+1WY794Gedx0YD5qG1/UhTyO7juFQ4JP/oJxiz9B5I4/sMaYt3EIsfGloXFIsT79mWPo2VBtu1TQVnnjUPKBfO4sXmlVAIGOUBXS32u/H6xexfCuKrjVdDUjf1ePvY5hnYuqeanfHWPjf3fEG4s5b7V0H7GUdNtufPZZh2WJplfxa/4uyF1jLCa7v3BNuq4+vz7nzqDvE+p3qKMQGsy4kOT3z9IZnVGgcCVUenETlqrp1y7o6fW2nYFsDxjIhJjcuUAORrWEgTM8coAO9YsvmwzQ4Q/jl+d5fWWlwVz4PslZ7xMGMiFZH39e5ilq1zzULmwcDVMeTeedvb1dPHca/doW9cRz20V4L9FgiFcwZdQTCFfzzl19JCYal9I78bFn72+eWnj6gxuWaWMwZ04vlHAZX2QGodzAr8zwlbbHcVi6pC+Kqe1w4D2NELH0hHD6jJomehzuz29se59C372eo3omv14buY3gfXIx5llD//BniKhhxLm0bVfLCW+E5zZbrlt/4jBeaK6etyMElYYae6et01vW1dfXR4X6vGkd3F+q5q0zBhOsvw/VMrs38XwxUH2U53ff2sW93eNsBDWfZ34Bm7wMZHvAQCbEJKVAjtrxAXqPexc9x1qdiUFbfRmk5/ZGv87UxIclcYCO7DNAhz+MX56vg7nwfZKz3icMZEKyPv4MZPdRPROMQ62N82n7YNh3t8+PXf/ZHNQp7lThFoR76vTAM2MXoG/kNDzVvh7yq+ANzFsVzReaUX3uLwztXFYFowrASh3w1JgFeHnSdHTo2AiFgvPhnmIF3TFZsMsWrHHPP5nt8bnzGPXyowhV6x3oLIiSTXoi4o0ZeGnaYrw0Tv3OeKohCgerZbvK4pHJRxICev2WsahgHE3kKIDSbYah+6QF6D1sAGpWKogi1R90P7+k23Yn8hctBte9DfHY4FnquUXiiQZlkFtFbHCNYRj9Q/xrIa+rT6+P4Ylv0L1xERXfTuR7qCueHrcQL0+MRMtGZeFSywyqPgijzGWuj37D/fsoV5EWaDdhAQZ9kPzvPwayPWAgE2KSUiCvndsVweoXSMIHbLcheGjCiaTn0yRrMr+glMYvVg7QkT0G6PCHyS8v5cFc+D7JWe8TBjIhWR//BrLy1BG80LSQO/RK9vzIfYhv/H2rPl2JNo0rIEjNJ+GzhjF4YIV26LDgGNZZ5rPp4FZ0aFDSPQChZ1r1eyP/Q2g4eifmrHsDZVTYOisMxOhjxvQpbI/PXcKUd4ehbvWilnmZOoJxz8Nd0GnJL1hrfcyf/2LKpB4od48KVnPaQGchlHtuPiKXDUn2y8+647ag6xMV3Idge+YfgnubvYnh+62nxCS/rr68PoabftiHFzs94g7o29OHoVizERi6x3LU0PH96NpQxbR7GicK99iaZF7xMpDtAQOZEJOUAjn6m28xetXHGLXS6ieYtO96kmmTN/mNPgfocGSbATr8YcrLS34wF75Pctb7hIFMSNbH20D2nzFYtnsf3lwchUHzP8DoLcexImG7rXnuX8zZ8gmGzovCsFVfYc7R1I+ESd6bWPrFAYxdvgmD5qzD4MWfInLnxRSvWhB99DgiV23C4EVbMWF3/CCQqXkNc7d8jKHzN2PMtrNaeBuqbfvT+dS2PQz13vlLu8/Qh9fHbRzWHPgGY5Ya03+I8Z+fl+P3xFlMXbURg+ZuxKiPz5m/E5PKQLYHDGRCTO7cOchJA5kDdGSfATr8YaqhlcxgLnyf5Kz3CQOZkKzPnQ9ku3sZr7YNQ4AjHA1mW85XziIykO0BA5kQk8wMZA7QkX0G6JCNxfrj17Hm+E2vvkH3Zk+kOJgL3yfZ/H2SWAYyIVkfBvKdc/2JG4g+vBVPVnYlM3hi5stAtgcMZEJMMjWQlRygI/4cUHlds8oAHaLHN6FZQeNc1vZ4xX34rzCNRe8O1ZUHc+H7JBu/TzQZyIRkfRjId8gzv+KFJuHInUdtp9XvrDzVh2Pcr8J0mSwD2R4wkAkxyexANuQAHYmn19c1KwzQIZohgaxMZjAXvk8ST59t3ieaDGRCsj4M5Dvk6R/wat8eqN/qGTTuNR3Dv/BljJc7JwPZHjCQCTHJ+ED2Vg7QkZUH6Mg68n2S3d8nDGRCsj4MZGqVgWwPGMiEmGSdQLa7WXuADppVzP7vEwYyIVkfBjK1ykC2BwxkQkwYyJlvdhigg2a+OeV9wkAmJOvDQKZWGcj2gIFMiAkDOZPNJgN00Ew2B71PGMiEZH3iA7l0tRooU+0hanNLVb6fgWwDGMiEmDCQM9lsMkAHzWRz0PuEgUxI1ic+kF+aNA99Ji+gNrf76LcZyDaAgUyICQOZUnonZSATkvXhIdbUKg+xtgcMZEJMGMiU0jspA5mQrA8DmVplINsDBjIhJgxkSumdlIFMSNaHgUytMpDtAQOZEJP4QKaU0jtluQqVzC0QISQrwkCmVhnI9oCBTIhJfCAPmrseUz/+llJKM9T2/Uag2v0PmlsgQkhWhIFMrTKQ7QEDmRATHmJNKb2T8hBrQrI+DGRqlYFsDxjIhJgwkCmld1IGMiFZHwYytcpAtgcMZEJMGMiU0jspA5mQrA8DmVplINsDBjIhJgxkSumdlIFMSNaHgUytMpDtAQOZEBMGMqX0TspAJiTrw0CmVhnI9oCBTIiJXQN5w9YliOj9Glr30h2I1i8ORsSAcegauQZjdl3GJuHxtvPcP5jx6XGsle5LyTOnMWLkEDw75zBmL5+GdoPX4b2TwnTUNjKQCcn6MJCpVQayPWAgE2Ji10BeO78HwhzyNVqtBuYti1oj9mD5OXk+djB6TzQimlZAeKtFWOTT63AT77zVFgUKPoleO2Kw6eA6NLmvAKq8vgcrxempHWQgE5L1YSBTqwxke8BAJsTE7oGcp+l0TN17AnP2Wdx7DG9v/ggv92+LonkdCMxzP9qs+Vecjx2Mf62CWvoWyOu3v4Ma94Sh8uADWOe+LRazJkXg7rvqoEO0fV9Pu8tAJiTrw0CmVhnI9oCBTIiJb4F8E+Nea4QSVbqh3/444f7so3fRdw2RA+vC5XAif8co2+71TFMgn/kNfVsVgbNUbww5bHmvHN+D9vcHIW/dSEzjoda2lIFMSNaHgUytMpDtAQOZEBPfAvkGRvUsi1zBLdFrb6xwvy/GYPrst9Bx4Dj033IFS95fgHYRLVDpofp4sFUfdJ57CMsSxZg5/eBliNz/JXp3a4PKDzdCzefGYeium+Y01zFn9Ry0fzYC1WvWQrlaj6FOp9F4OfoM1ifMx6O30bc+aihKugLgqq2C7rR+v/fLc/vrbxg9YQgaNmuEijWboV736Ri17xpmLZmuXoexeHHdH+b5ztbX5lqS+UTv3YLur4/GsxM/w8JE6+7L+sRg4ftL8ExnNe1DNVG+dnPU6zIWr6hpN1imMdajQ/vayKNeq9yVn0aEWqdX3v/HMh/ZVasHooQrCGX67zH3HscbixljmiOvswQazYp/vtROMpAJyfowkKlVBrI9YCATYpJ5gXwdg57Jj8CAUNToPgCV73YgV1gJFCtTDHlVjAU4wlG2xybMP6NNn7c2ajQogVx5CqBgicJw5a2H57bewuZzZzGyX2PkcxqPDcHdpauiRMmCyK3mFegqjZojv0x0HrG3gbxyUW/co+aZp8E7mJmwLkofl7f5533o0qQ4chn35ymIIuXKIjyvA67y3dCmQyU4A4JRdcQPiHJPf/u1qff2xSQRaUR7KSPa60Ti7fho92l94rB46QCUDnGoaYMRfl81NW0BON3rVhGNZ55AtHu6+PXwnI/tMRQ1J51OOWzVuvRvV0TNqw6e/Uj9bLT7o/fNQc27HMhbfzreTfKlA83pMpAJyfowkKlVBrI9YCATYpL5gexAoMOFIq3ewYRDMer2W1i4LhIPF3UiwFkWzeZfMGPsdqwF5m+KjlEXVcRdw4x1uzH7TCxmTe2AAk4HQh/uh/4fXTRD8yYWRM1Ag4ohKhIr44mlfyWEnVeBfHQfOjcsqJYZhHKv7bPsWfV1eTfch2rncTgQXKMfBu686p7P6p3r8eRD+VQ0q9cgXYHs4/qcPowudYMR6CyD+tOOekamPncJkW+0QLh6TXLfPwqRp4zHx2H5vkOYNK4D7lK352k0AeM+PoRZ3yeNXqubvl6Eunc7kLvqCExwz0fzzFF0rx+CgLyN0GW78TMXpqE5VgYyIVkfBjK1ykC2BwxkQkxSDOTTRzB09BR0GTHZNBItHlHBmKcaHhkwyXL7NLwSfT5JyKXs7eB1ln4RQw9Zz2mOxZzJESpgHQhpMR/z3QF7O6jzPbMeK6zzOvklOlQLQmD4E+i5M2lwrVrzOkq61Lwen4s55l7g+EDOXe15dEx4HqbDxqF9zy64v2y4e3l5KvXF0IOW9fN1eb9sRcv7VPDneRjtNyY+ZHr9xxNRJdihfgbpCGRf1+f4+3i8sFpmcAv03GP5ouPnLYho3BKPPP8uxh+9/Xhfz0FeOa8H8qmfXb6OUVgl3O8+l71PVTgdYag16Xcf3zc0u8tAJiTrw0CmVhnI9oCBTIhJioF8PApN8hnxZj3EVjIYlYcdMuPOW+Mj0Il7X9iW5Pq6m75ZhDp3ORBYsAcGH7NOH4xqI48kWlbUJ5GoklcFY73xGP+lNiK14a5laHyvE4H5u2CgGX7x0Sc/H4+BIWVQ5ZlJGLkv8R5TX5e3YcsYlM8TAGflN/CWPjDVmZ89e1PTEcg+P//Th/B8nRD3nvvCTYagz4rvsSSFAbN8C+RbmDKoDnKr51NxyDfJvCfiMH9SWwQZP/ten2jnKNOcbs4M5Bhcvfg7fv35GE6cv6r+Rkj2hoFMrTKQ7QEDmRCTFAP53Hm8E70T49bvMN2Onm2LI1feR9Fu3ueW23dh8j7PYcPeGx+BIXjord/Mc14tntyO1mVcCAhujp5fGHs5b0djnamJB3dat6QPChjn3pphm6zBj6H7Ls8e0/joy/PoKAwzn8fYNVvQf3AnlMnnhLNYC3RcLQ8i5evy1i7qjXxGYD4+z9wbbvUGhncpgVzpCGTfn38cFq8cikoJX344kKdYHdTtORmvRv2G1dryfAvk+OdjnKuc/N7h+Hnmbbsi8dEANMebLQM59hcs7FobNeoOxoc3zNsMrqntZmRvtLi/CILV+9n978kRhMLVWuDFyVvwy3VzOl9Iblk63k6XLq7i2JZZWHXglvl3YhcYyNQqA9keMJAJMckKg3TVmSaE6MkdaFdRBXLeZui2I3Eg69FoxJZxjqyz3JNo3us1tE7Ol6Zh5NeeQ6WTj744LFk9DJXCHch1T1M8G30pybr5uryUA/MmxvSu6NsgXRvMkbXNQE7L8zdctXsbXuzXBVVLG+dBx3+4D8G9zSMx7vvb06W8/rrXMeTZQubPNfnD7tcufgn5vZ4nzUlmy0COOYKpTYIRENYF6+KjN+ZnLO5YBi5HGCq37IPRb8/F4iWLMWf6CLzQtKwKZhfKdJiHIzfN6b1FWpZE7E94t2UR5C/eC1FpCfFUicFPM55AAWdR9H4/QxZAsjAMZGqVgWwPGMiEmGR+IIeg+ps/Jd2D/Es0mhZyIPCuZ9Dve+v0SaNx3apXca9TBWPNCcKlmGRTi9Z33mqDfE6His6eGLQ/8XP1dXnr1w9BCSNo600RRm2+hiHPFVHPK3EgD07hy4N1K/qhkLH8+D3IaXj+iTzzD2ZFrUa3XhEo5d6r7ELJvjsSDnv3LZDVe6RHGeRK7sgA09VzuiDEGLTsqTXJnKdMc6o5JZCvftQP5ZwuVOodhbNxntsSiDmBVV3LweUshudX/QH97hTxNpAznFs4OL4eghwMZDvCQKZWGcj2gIFMiEnmB7ID+dqvwVItvNZvHIHSeazRl3wgbzowH7XDVEyHPI7uO4X1OvkLxi3+BJE7/sAaczmpRt/pn/FSy+Iq9Jwo3H6V5XJTvi9v06EVqJ9fTZ9fxb51sC/DU/vw9ANB6meQOJCHdS6qnmsIHhh7TIvMWMx5q6X7usTxgezr+kR/+RF6vjYQLQZtwoJEzz0Oi2d0dh8Onqfhu5gVP6DZgp4+BHIM3hnRGK6AIJQe8KVl5G+rsZg1tjnyqBAv9coX8jWjaY7Vf4F8DScP7sKu78/i2u+7sHTaREyeE4UDf8QfDnwLf3zzARa/E4lx4yLx3tKtOPxXrHmflas4ue99LHlvEsaPGYPxU+dgzY5fccW8102SaI3B95MaItiRH903XHNPonNz9xu43+VA0d7vw5OXnvXdseswzmvFHPfvr/hq5058+dNfiLMu69q/+HnbEkyfMB6TZq7B7hNXzUcYJDc/b5+3h6u/7cTaudMxYdwEvL14C767aJxBHYNz33+OJX3uV4FcEBFTP8WugyfVEoldYCBTqwxke8BAJsTEt0COwfS3B6N518kYlWjU6bQYH7wBCAxrhGc3/3v7vpNH8VKrEsjlCEO1kYdTP+z43Gn0a1vUE7NtF+G9E5b7/ryCKaOe8Fy+qPpITDQHo/Jmr2jUrnmoXdiJAFd5NJ139vYyfV3euYsY/Fxp9XxCUK7PdsuXATGY825nFHafP2wN5FuY/Hpt5Da+PHhyMeZZ4/zwZ4ioEeJ+3eID2df1id4zEw8ZA6CFN0e37Tct08Zi9sQ2uMvhwN0d1mK5efvaxeY51M2lc6iTumZ5PxRxOhDcagkWi9Nfw/AuJdXrUQgNZv4l3E9zsn4LZDMkQ5o8j87VQuBwOJVheGLGL4i9cQxrBjzifh8GqNtdLnWf+vcUVOIxDN/yOxJy8coBzHi6EkLV+/v2dMb/h6H6i+twKn7CJIEchzMLItS/Kxcq9VqP36VRueJu4N+//8LfV8xjrFPYM3xr35uoGeREyZc/xI346UKao9dLtZBf/Xt0GKr1cuSvgV7Lf4L7lGNpft4+b4O4C/h8QmuUNUbRV/N3qse4py3VCpO+OIrFz4S5fzfEG9xkKo5w9DHbwECmVhnI9oCBTIiJb4HsT2/vQXblDYazSAM0GzwbfSMnoWXjcnCpD2whD4/A2B/16ZM5L/ezOahT3IlARxDuqdMDz4xdoOY1DU+1r4f8LhWDeaui+cLbkevdYcMxeG+Ccai1cX5vHwz77vaXAr4uL3rPcjQs7UKgsxDKPTUKL0yZj+4vtUPxu9SH2LxB6nlZA1nNf8tYVMhrfHAtgNJthqH7pAXoPWwAalYqiCLVH3SvU0Ig+7o+585jaGfjvGcH8pRugZbDZuPlt9X69HsWpe9W0wY/hHbr/rn9XKPfcA8KlqtIC7SbsACDPkj6+ifySBSa3utErhJ9MNw9Armmsdf8fvWc745A3wPp/aKFZjf9HcgBASosI97GvotXcfaLLdh95h/sHfsowp1F0Gjgcuw7cw1xsVdwYsds9KgRrrY1rTHrJ89e0h+mNVORG4RKXeZh/3kjZG/g7L556FrFhYCguhh30NwbLcRo3Pn30bdKkIpXF4o8HIF+b81D1M4jOJ/cgFm+BrLaLjsK1EG/ZQdw7splHP90Cp4qp5aX/3FMP6zWP8n8rnn5vA3icD7qBZRzOlG4yVBsOPw3bt28gAOLeuB+FczBDw3Ful1bMa93NbUtLoC2E7fgk72/wrr/muRsGMjUKgPZHjCQCTHJ/EAORZ2hi9GmXjE4jb04al2MiCzTdiJG7bde0zflQDZc9elKtGlcAUHmfNw6nAip0A4dFhxLdDkhr8+rPXUELzQt5A7Pkj0/SnQouC/LM1y9fQVa1i2O3PHTO/KhlPpg37NrZW2QLsN/MWVSD5S7R0WvOW93XD83H5HLhiS+DrL5GJ/W5+h+vNixDvKpeE6YVgVz3jJPoN3co4mnPb4fXRsWQS73NOoDdY+tqVya6V+M6F4euVwV0Wpl0tHNN2wdj4p5nMj31Kpk9jDTnKzfA9lVGa9vv12lcRfWoEsxJwpGzMcJ7cji61+OVCHqQrUhO3ETV7BvwSC80OlVLP/VOuFNfDH8ARWGRfHiZrNkk4nbaz+uw9AnK7qP0Ij/N+TMVw6PRPTF+GV7cNo6QJevgewIRdOpP+D2+NFxuLC+B0o5Xbh/2G7c1Obn/fNWxJ7AnNbhcIQ2wzTrbuG481jVuRjylX4CUw9e4TnINoaBTK0ykO0BA5kQk6wQyO7gPXMZMzduwVDjXNndf1tC0VdjsGz3Pry5OAqD5n+A0VuOY4XlEGX/6+Pyzl3F3C2fYNiCzRjz6R9Y/+dNjOtTRQhkj9FHjyNy1SYMXrQVE3ZfSnbQq9v6sj5xWLX/W4xbFq2m3Yw33/8ZyyzBncgTZzF11UYMmrsRoz4+l+rPZ8O2iagS4kShTtEJh2p7vIHxrzyI3HkeQMR6Xy8NRnOCfg/k0AgssIySdWNrP5RxBuHB3jOxdt06rLO6ajRaF3LIhwvHXsUfP+/HJ2tnYmDzEnA6CqJndMqB7OEWLhzehmXT3kDviPqoWMBlHqbtQvFmI7HtD3PdfA3k4CaYqq/kpVXolF+tf7Pp+OlG4vn59LyvRqNnYfX3RyfiW20RsbdumYdic5AuO8NAplYZyPaAgUyISZYJZHEaO5hyIGdbz13EsC4V4bz7SfR2X8fac/umQ+vQpJgLBdouwdwM/eKCZlX9Hshhz2NNwrG/cbi45GmEGoGagq5qQ7HL2JUacxa75gzE0w2ronhYfNg6ERxsHDpdED3ir5+UYiBr3PgD326Zif5NjMh2otyLG/GX0ci+BnJYJ6z615wgnpvbMbCiC67qav2vWOfn2/OO+30u2oQGIPSpRYjv96QwkO0MA5laZSDbAwYyISYM5Mw2hwayMvqrFWhQIhglem419yLfwKTBjyCoYCu88NmtJNNTe+j/QE4cnH8tfRph6t9TvaHv46sDB3BA8OvvT+HfuCvY/WY9hDscyFf5MXTuPwKRs1Zgy75j2DGmjgrDFAL5n71YMm40xi3ag0vJBGbchbXoVsIJZ4k+2GIcAW6Zx1ptOOhbX47Ag0kC+VmsuGROEM+NbRhQ1omgh9/EvquJ18n7563W7dxCRBiB3G4+zjCQiQADmVplINsDBjIhJgzkzDbnBrIxKvb8uT1R7O5H8ezma4jaORs1C5dEncgfk7n8E7WDGR3IN7cPREWXis3em6DvgE3Ev9F4oZgTruqv4uO/rZV4A9sGlIPTUSD5QL66GS8Z8Vu2L7Ykt5CYb/DWI8FwFOoJ95HasUcxvVmImkdHLNfC99rmF1HcqR9iXR8Tv0t8/HPcqTloHepA2FOLcO5m4nXy+nkbXP8Ir5RWof3gCOy5fZKzm5gf1iJy4ntYtfc3HGAg25b4QG7deyDavPg6tbnNu/ZlINsABjIhJpkXyDGYuXIhXoqcj+GfXxfut4sqIqNWqtdhHgZ9+HcO/KLgH0xbtAD91hzD3E2r0Wf2Xi+upUxzshkdyLj8AfqUdcJRuDVm/mgdJQu48sVI1C9ZGQ2HfIA/T81Du9AAhLScid8sg1rF/bERL1Vyqe1iGDrHH7udZFmX8EHf8u6Ibjb+S3Ev8tUDb6FRmAMFIubjpDH/uLNYEBEKR1AtjPnKUqVxf2HLK5XhMkbjTjRIVzDqjPrSMnL0dXwT2RhhjnA8MfMXxOrr5OXzdh/uHXcR67oXh9P1AAZt/8czkZtr2DOipori/Hhq4XEcnPAIgh2F0WsjA9luxAdy/bbPoX67TtTm1mnZnoFsAxjIhJhkXiBTSu1ohgcybuGnuREo7nQgpPJTGLV4Cz7fuR1Rc4egZRkXHMHV0H/LRcTd+gqjawapv1dGx8h12L77c2xZOgFdaxVCWJgK2YBQtJ77O9ztKywr9tR69HZffzk/qke8hqlLN+GTnbuxc1sUFozvhYYlXHAWfhyTvopPXM9lpcIcDhR8pA9mRG3H59vWYHqfRihfqiQK6nuQHWEIL1gZ7ceuxMfbP8CSUe1QPsi4/N0QbDeKPMk6efm83euicvvryWhWwAFXmZYYuuADfP75h1gy5ilUDnEg+MHX8cmlWPw6owVCAoJQ+9U1+Gzf0WQPJyc5Dx5iTa3yEGt7wEAmxISBTCm9k2Z8ICviLuGreS+hfgkVwGr7ZmzjjEswhZZrgUGrj8BzCnAc/toxAa3KBCdM43AVw6N9FmLvxyPwcIgTRTuv8gxilcyybp36FNN7N0W5MOvl0oz5FEL11q9h0f6/E4LUzb9fY07XGiigItY9rSMYpR4fhqjoEeIgXdOW9kEtFbGeaV0o3ug1rP3ZvKSVtE5ePe94YnH200g8XT1/wiX2jPUp2WQAVv3omWHMkTloV8LpnpejaC9svOK+mdgABjK1ykC2BwxkQkwYyJTSO6nfAtkbbpzHkb3bsfXDj/H5/mP4Szvf1iDu6u/4ZsfH+GjbLnx3+mrioPWSuKtn8MO+z/Hxhx9i2859OHJWG4UrEbG4fHw/Pvv4E+z67rQWrUm5deFHfPHJNnx+8CSuWFfODGRHeNekXxB48bwTiP0Hxw+odf9oG3Z/fzbJ+ty68AN2bt2CrTu+x7mU5kNyFAxkapWBbA8YyISYMJAppXfSOxrIOZlbBzC2ThCcxV7CB+ZOZUL8BQOZWmUg2wMGMiEmDGRK6Z2UgZxeYnHyiyismdMHtUMdCG4yFUcSD3ZNiJtNmzbh22+/xf/93/+Zt3gPA5laZSDbAwYyISYM5CziuX8w49PjWCvdl5JnTmPEyCF4ds5hzF4+De0Gr8N7J4XpKM0iMpDTSexvmNkyxL3ddhSohQGbzqTpsHCS84mIiIDT6UShQoXQtWtXrF+/HleueHciOQM5C5iFPhcwkO0BA5kQEwZy5hu9JxoRTSsgvNUiHy+BdBPvvNUWBQo+iV47YrDp4Do0ua8Aqry+ByvF6SnNfBnI6SUWV84dw7cHvsWvf/OkYJIy//Vf/4Xo6Gj06NEDRYoUQa5cufDoo49i4sSJ7ghObu8yAzlzzWqfCxjI9oCBTIgJAznzXTu/B8IcAQhq6dsvwvXb30GNe8JQefABrHPfFotZkyJw91110CH63yTTU5oVZCATkjkYMfz9999jwoQJeOSRR9yxfO+996Jnz57YuHGjO6bjYSBnrlntcwED2R4wkAkx8S2Qb2Lca41Qoko39NsfJ9xP02KafhGe+Q19WxWBs1RvDDls+Vkc34P29wchb91ITOOh1jQLykAmJGvw77//ug+7Ng6/LliwoPtw7IYNG2LKlCnYsGGDl4HMzwUZYVb7XMBAtgcMZEJMfAvkGxjVsyxyBbdEr72xwv2+GIPps99Cx8HLELn/S/Tu1gaVH26Ems+Nw9BdN81prmPO6jlo/2wEqteshXK1HkOdTqPxcvQZrE8yP+Wvv2H0hCFo2KwRKtZshnrdp2PUvmuYtWQ6Og4cixfX/YFN7mnNZQ8ch/5briWZT/TeLej++mg8O/EzLEz0i8mX9YnBwveX4JnOatqHaqJ87eao12UsXlHTbrBMY6xHh/a1kUf9Isxd+WlEqHV65f1/LPORXbV6IEq4glCm/x7zW+J4YzFjTHPkdZZAo1nxz5fSrKMRyPnvKYgWLVpQSrOIzZs3R926dVG2bFmEhHjOcfcukPm5wA6fCxjI9oCBTIhJ5gXydQx6Jj8C89ZGjQYlkCtPARQsURiuvPXw3NZb2HzuLEb2a4x8TvVL2hGCu0tXRYmSBZFb/cIIdJVGzZFfYrn1l9TP+9ClSXHkMu7PUxBFypVFeF4HXOW7oU2HSnAGBKPqiB8QZV12QCjqvX0xyS+L9VFDUcoVAFedSLx92rzdp/WJw+KlA1A6xKGmDUb4fdXUtAXgdK9bRTSeeQLR7uni18PzQcRjKGpOOp3yLzC1Lv3bFVHzqoNnP1KvlXZ/9L45qHmXA3nrT8e78etPaRbRCORiJUq6D/OklGYN+/fv747k0qVLw+FQv7vM30l3NpD5uSCrfi5gINsDBjIhJpkeyGrZgfmbomPURfXL4RpmrNuN2WdiMWtqBxRwOhD6cD/0/+ii+QvsJhZEzUCDiiHql09lPLH0L/MXxg1EDqyLPOqXenCNfhi486p7Gat3rseTD+VTvxwdajnp+UXo4/qcPowudYMR6CyD+tOOekagPHcJkW+0QLj6ZZj7/lGIPGU8Pg7L9x3CpHEdcJe6PU+jCRj38SHM+j7pLzerm75ehLp3O5C76ghMcM9H88xRdK8fgoC8jdBle0zS+ynNRHmINSGZz/Xr17H5/2/vPsCjKvC2jcdhHGKygQWWInVpAgoqKCBYEaUoYqwogoKAoMiKUqRIE0KXZigCSicmtCAIEUKNVEFBpAhK/ZDyUjZkyWazsz7fOZMJTJJJmMAhTOD+Xdf/et9MTmbOnLDO3DllFi5Uu3btVKpUKd12222qWbOm+vbtq02bNmnbtm2u9wY3JJB5X+B37wsI5FsDgQy4ZRnIB3eoW5+hatFziHvC1LBuYQU4Kqlup8Eetw/Xe1HHMrygZD2pL0Y2FXglQtM9v3dgnV6qGqjb8jdS69iM/yGfOftDlXbYFPz0eIUfMm7bs0SN/25XQN4H9OK8tIdGRSwdpLuDzL+GX8MLYXbXZ98CPV3UeMyghmq91uMNwy/RCn2iseq+MUoDdl3++eyeazRjQisVMF7cC7waqZlevu86J6z9PbLb8qnm4N+z+XthmOs7BDJwY+zcudN1fvETTzyh22+/XYUKFVLz5s01a9YsnT592r1Uikwv0pXJ+4Lb8lblfYHH3GzvCwjkWwOBDLhlGcj7IlWvgPki4nmoj7cJUpXu29wvMr5O6otRkKr22pHmZyOXhenuO4wXojoDNGDdfoXHpZtVX+mJO+26rWALdTZeUL6O7quKeQNkr/KxPk1/AYpDv6T81fQaXgizuz4LD27TG7WDdZvNoaL1uqr99O2amsWFMbL3QpiooR/V1u3G86nUdUsm29ypiYObKjDArjvbLEt3LhLD3NghkIGcER8fr/nz56tNmzYqUaKE69DpWrVqqV+/ftq8ebP+97//uZfMKNNA5n3BLfm+gEC+NRDIgFuWgXzkmD6LilX/iJWu6TtnmWrek1+2vA/q+QkrLt3eP2KVhsSlHL7k+1x+Mao9LO1FI+ZOba9C5jk9aV5svUzQU3prVbLmTG6rAuYLydMTNDHDC0mCerQopTzX8EKY3fVxnWs0o5sqX3oTYVPeErX1UOsh+kfkr5qV7vGy90KY+nzMc5Iy/ytw6n3e0XR62r/CM8wNHgIZyBmVK1d2XZ36jTfe0OzZs/V///d/7u9cWaaBnO59Qf+IGLVuWlJ57niY9wXe5iZ5X0Ag3xoIZMAtO+cgD1kcqxeeKGrxuUYZX4zM/4ib597YKzyrBm0+UJPM5p3h6rXJeYUXkovq27ZS9i7G8XU3lfZ4Iczu+qTez8zV36pdxxa6p6x5vpP7xdIWrDsbhKn/9svLZe+F8IK6NiuS8gZieOaHr82Z8o4K+nyfDJNzQyADOePYsWNZ7iXOiu+fg3w9zkHmfYG/vS8gkG8NBDLg5msgRxxI1Ju9B6rza2Wu+wvh3Jn/0J1244XowYEabrwQpf25jBMR0VWlzBeuOkO9XJ0xXl1fK2Y8TtoXwi7ux649PONHHsyd3lFFzMdP/UtxNtcnwxw6o3GRs/Rmm1CVcf312KHSHVamXKTDmOy9EBpvRlqVU56AYNX49Ff3VS8zzqzwFgo2L07ywuxMzkdimBszBDLg//wtkHlfkNVc//cFBPKtgUAG3HwN5AGRq9VrelSOvBDO3zhRtfLZdFvw03or1svjHNij/lOWKWzlUc02Xjjmb5uuRwoayxd8RR03e3w4vjm/xenl+wKN55j2hbB78+LGYwfrvn67072YJCv808auzx9MfSHM7vpErftGrT/orIYfzdekNC9sTk0Z09x12Ffex0ZpnHnhDuP2OZNaZ+OFMEmf9XxCjoBAle20zuOzEz0nWeP6NVBe4wW3zHtrvH82JMPcoCGQAf/nb4HM+4Ks5vq/LyCQbw0EMuDmSyDP2vNPtew1THP2/Z9GjOyiBi2HqPe2dC842Z4sDmc6clAdmxZXngC7ijadrNH7Pb73/85paO9GKR+LUK2XBpkXuTjyh7q8VlZ5bMGq0D5GX156MUlS+KjmKmo3D2PyfCFM1JAPa+l280qZz07RBPcLkjnzf/xOodWDjfW6/EKY3fWJWjtWNf5ivHDmb6A3Yy56LJuszwc9p7/YbPrrS3M0zX37nCnuc6UaeDtXKuPMntZRxew2BT0zVVO8Lh+vHi1KG9ujiB4de8LL9xnmxg2BDPg/3wM5ifcFt8D7AgL51kAgA26+BHLPad+oX8RKr9+7+snihdCYiO/CVbukXbfZAvW32q30Sr9J6hA2XC+8WEcFHcaLzB33qMEXhy/9XNTaaXqsrEO32Yuowgu99fbQiXrrnedV8i92Oe4INB7H84XQuP/ofrrrDpsCbIVU9rnuemvwJLXt3kkPVi6sYtXud33w/6UXwuyuz5Fj6tbcPL/JprxlG6px98/17khjfTo2U9m/GssG1dDzc89cfq5RH7su/pGnWEM9P3CSPlqUcXukmR2RevJOu/KUaq8eu7183/zr+L3Gc/5rqDpsvNY3LAxj7RDIgP/zPZCtHN4XXHqufva+gEC+NRDIgNuVAnnaztN685MRijp0rYdOpZ+sXwjNmbl8hp574i4F2twXsjDHZlfwXc/rpUm7M3xMwayY6Wr8UEndnrq8rYDKhI5U65ZV0l2Mw5yzGjq4lSr8zXhxc9+360X0tYkK+6prmqtVpt5/ttZn1wa1e7W2ChgvkpeWNV4Y7yjXSM+P35V22X0b1PKxYsrjWsauoq2WXOEjGM6q51sVlcdRSc/MyHiV0K+XDFClvHYVeGFmJn9JZpgbNwQy4P/8MZDN4X1BZnN93xcQyLcGAhlwu1Igdxo9Q8OWbPH6vZyZJH21Ok6fTInURxMXqU/0Pk33OPQpwxw5r/HRy9R90kL1XX5UEa4Px7/bywthykTt2qewmfPVZfISDVx9KtOLW1ye7KyPUzM3bFX/r6KMZRfqkwW/6CuPF9Y0s/+whs2cp4/Gz1PvpUcyrGf6+frbQbo72K4ir0ddOiQrZRI04L37dXve+xQakd2P2GCY6z8EMuD/bkwg+zq8L/A21/N9AYF8ayCQAbesAnnixoNqOyhc847k5sN0s34hzLVz5A91b1FJ9r8+q7ZrLu/dn79truqVcKhQ06kan9UbBoa5QUMgA/7PvwP5Wof3BdkdAvnWQCADbpkF8oJjf+rd4VOyPDc5d8xN+kJoTNT30/VoqSCVar3E/dfiBA3uUleBhZ/R298lZlieYfxhCGTA/xHIuXOu1/sCAvnWQCADbpkF8ujYXa43sp635c65eV8IzatfThzfWiX++rCaLYxXZOznerBoadUO25nJxzwwzI0fAhnwfwRybp3r876AQL41EMiAm7dANl8Q23w6TpM2H07zH8jcOcaLReQMvRM2QR8tPpn1VSBz5ZzR8MmT1HH2bo2fP0vtP1/vw2cmMsyNGwIZ8H83dyDzviC7QyDfGghkwM1bIA9ZvEkfjJud5j+ODMMwVgyBDPi/mzuQmewOgXxrIJABt/SBHHnwP2rZa5jr453S/weSYRjmWodABvwfgcx4DoF8ayCQAbf0gdx37gr1mr40w38cGYZhrBgCGfB/BDLjOQTyrYFABtw8A3nWnn/qzd7DXf/X238gGYZhrnUIZMD/7d271/XeIF+BQspf8G/MLT6OvIGufw8nTpxw/wvBzYhABtw8A9ncc9z/61ivb2oZhmGsGAIZyB3WrVun5cuXM4xrfvjhB/e/DNysCGTALTWQB85f5zr3OPL3JK9vahmGYawYAhkAAP9DIANuqYFsHlo9ZPFGr29ob5k5ckZjlu/THI/bvl4yVaFtP1CTNumns5q066LQTv3VMmy2+q46fRN+VEQ2x8v282kOHVTPXl3VLPxHfT5tuJ7vMlejD3hZjrkphkAGAMD/EMiAW2ogh77bXQuO/en1De2tMFFroxT65F3K/8zkNJ8XOGdiK+WzBbi2UVZz2x3lVbPnWk27RT+DOLPtd+W5qM8+bapChZ9Vm5VJmr95rur9vZDu/nCtZnhdnsntQyADAOB/CGTALTWQP566yOub2VtlUkM4sLH3QM775AgNW79f4XEes363Ri78Ru++31TF77Dptrz36rnZZ9Pc760ymW2/K01EzGeq/rd8qtJlo+a6bkvWuMGh+utfauulqFtzW97sQyADAOB/CGTAbfv27a5AHh27y+ub2bRzUf0/eFyl7n5THTc4vXw/986VAjnr8ItXWOeH5LDZVfDVyFtyz+dVBfKhX9XhmWKyl2mrrj96/Hvat1Yv3huoOx4K03AOtb7phkAGAMD/EMiA4b///a9Gjx7tCuTUz0HOehLUu3V55QlqrDbrk718PzuTpBGff6pXO/fX+9HnNHXBJD0f2lCVazyi+59pr+bjt+krr6Hl1FffztUbrZqpeq2aqvDAk6rVrKfeifhdERmWTdIXC6bqleahqlbjQVWs1UB1WvTTe1GH9LXHMuZ6vPRiLeU1Au/2Ki8r1Fin9xaccX3f1/CLiOym0o4AOWoZUXfQ83sXFD4rXC82M9bhQWN9az6l2q/30bvGOmRcX2P2/qo+A7vqsfqPq9KD9VXnrRHqHRevcVNHGNuqn9rNPeo+19lz+8VnuJ+o9dF668M+ajboO32RZr2zsz7Xvv2ympmzOquUI1Dl3l/r3nucOska07eB7rCX0uPjUp8vc7MMgQwAgP8hkAHD1q1bNWXKlBsUyBf00SsFdVtAiKq/1UlV/mpTnnylVKJcCd1hhFaALb/Kt5qviYc8f+aiRn/WWn/PZzO+b1fQnZVVsnRh3W4sf5u9tGqkOQfYqSlfdlLZYHPZIOX/e1WVKl1IdnPZvJX0xNj9ikqzHp7nFIfowcEHXWHmayDPmNxWf7MHKO+jn2ls6jofOaxeHZ9QAeP2AFuw/lr2HmMd3OvrKKsHe61Le87yL3FqUa+k8rjWsbCKVSiv/HfY5Kj4pp57qbLsAUG6p+dPinQtf3n71Rn5R4aINIO9jBnstcM0MjXYs7U+1mw/z3VKM8a6vP98MeO+aqvZN4kZvh8VF64H/2LTHY+M0Kg0f3BgcvsQyAAA+B8CGbe8//znPxo5cqSOHj3qipobF8g23WZzqNgzn2ngNvMjphL1xdwwPVDcrgB7edWfePxSaH29bJiqGSF9W1BVPT54o750hWi8xk35WNUK243Iq6JGX51IWf7gj2rxUJARzuX0yPBdKVdWPnJKYR83VH4j8m6/t7fCfjN/3qlpcds0uP9L+otxe97HB6r/0m0atz0l2nwK5F1xav5YYeO5BKrCB3HuvavJGjfsJRWy2xTyQEe9/80f7rC9qEmRY/RopeCU9f3Svb7GtjUP085rsymoekd1jj3vuu9ZsRF6tkYBI5qN531NgZzN9bFo+2U28zdN1kPG7/L2e3pqoOt+0s2hXXrrkWAF3PG4WsTw0WM30xDIAAD4HwIZt7zY2FgtXLjw0kW6vAbywR3q1meoWvQc4p4wNaxrhGDeqqrbabDH7cP1XtSxDJGW9Vze82gv207dtnme05ys8CGhRpjaFNxwoia6wvSC+rQ196I6VKrNt+nO803S2AHPGIFmLN9ggsLNcN63QE8XtSkgqKFar/WI+V+iFfpEY9V9Y5QG7Er9+cxDOPX226u+oVcvPV/3dO+vF1u30L3l87tCP2/lDuq22f08DqzTS1UDdVv+RmodmzHwZs7+UKUdxvo+PT5lffcsUeO/2xWQ9wG9OC/tIdMRSwfp7iDjuVxLIGd3fSzafpnNjAmtVMD4fRV4NVIzvXzfdb57+3tkt+VTzcG/Z/PfFuPPQyADAOB/CGTc0v71r39p6NChunDhQtaBvC9S9QqYYeZ5+Ky3CVKV7tvc4ebrpAaeXXe+/W2Gz86dv2Wyav/FptsKt1KX3cZtBzfrtQcCFeCooufmXkyzrGv5TRNVK9hYvmBLdTbD7eA2vVE72LV3umi9rmo/fbumZnHBpysFsvfnnTK3BZfT3a8MVq+4y3tNI5eF6e47jECtM0AD1qW7+rU5q77SE3fajfVt4Vrfr6P7qmLeANmrfKxP06/noV9S9qZeQyBnd32s2n7eJ1FDP6qt243nU6nrlkz+3Tg1cXBTBZr/PtosS3eOMpObh0AGAMD/EMi4pUVHR2v16tWu/z/LQD5yTJ9Fxap/xEr3xKh105LKc8fDen7CCo/bV2lIXMohwb5PauAFq8anv7rPZ/WYAzFqUs6hgKAGar0mWQv3R6uBEXABQc+obZyXw7svLf+03lplft+pKTO6qfKlwLcpb4naeqj1EP0j8lfNSvfzVwrkvA/3Vnf38+03O1rvd3ld5QrYZS/RUK/OynghqblT26uQea6vR0h7naCnXOs7Z3JbFTAf/+kJ7j3mnpOgHi1KKc81BHJ218eq7ed9Up+Pea5y5nuHU+/zjqbTNd3L95ncOQQyAAD+h0DGLevUqVMaMWKEEhMTXV9nGcgZ5vpcpKv2cC9XKj6wUs9XMoL3jvp6c6XxWPvmqf7fjFgLDlWH1MOYs1reffvM1d+qXccWuqeseR6vOwJtwbqzQZj6b798P1cK5Izh59TUWd1VOb9Nef72pJpFnUrzHMyfM8/JtVd4Vg3afKAmmc07w9Vrk/MKgXlRfdtWyt5Fur52X1XbHcjZXZ/U+7nW7ed9LqhrsyLu333mh+bPmfKOCvp8n0xuGQIZAAD/QyDjlhUVFaVNmza5v/KHQA5WtU9+zrgHeU+Unixi021/eUUdtxtfH4jRcxXMAH5Mbyz3ctGmPZF6srA7oLd6CehDZzQucpbebBOqMq69og6V7rDy0qHdmQXelcL1s0+fUwG7zQjP1vpow+VtMnfmP3Sn3QjUBwem+9gn7xMR0VWlzKCtM9TLVZvj1fW1Ysa2ShvIXbL4A8Pc6R1VxHz81D3I2VyfDHOV28/7GP+OWpVTnsyOHnDPrPAWCjYvWvbC7EzOU2Zy4xDIAAD4HwIZt6QjR45o1KhRcjqd7lv8IZBtKvDibH2ZLqoi5vVU2bweQXfkkDo0yq/bbIVUZ/ihjEEY2d11SLG9cjcNOCBFrftGrT/orIYfzdekNPft1JQxzV2HM+d9bJTGua6EbQTepNZXEcjGHPxF7zQuacSeXUVfnHnpY6nmb5yoWvmMwA9+Wm/FetlWB/ao/5RlClt5VLON+52/bboeKWieQ/2KOqbfQ/5bnF6+L9D4PaUN5O7Ni7v+wHBfv93pIjNZ4Z82dn0ucWogZ3d9rNp+3idJn/V8Qo6AQJXttM7jM5U9J1nj+jVQXiPEy7y3xvtnRjO5cghkAAD8D4GMW5L5mce7du1yf5Uie4GcpBEju6hByyHqneaq01czqYEcoNvyPa5mC89e/t6BXXrnmVLKY8unqr1+dAdhsiYMf1H5bTY57v0w7ePv36G2DUsYkerQ399d5dqrGbV2rGqYF/nK30Bvxnhe1CtZnw96znXF67++NEfT3LfPmeI+B7hB2nOAfdkzGrlqgmoVtSvAUVFPTjicEu9HDqpj0+Ip4dx0skbv9/yZcxrau1HKxyVV66VB5sWvjvyhLq+VNZ5zsCq0j/H4g0GSwkc1V1HX+cOegZyoIR/W0u3mHxienaIJ7lA1Z/6P3ym0erBr26YGcnbXx6rtl9nMntZRxew2BT0zVVO8Lh+vHi1KG9ujiB4de8LL95ncOgQyAAD+h0DGLWf37t364osv3F9dlr1AtnIu70F23BEke7FHVb/L5+oQNliNn6gghxFgwQ/0VL+dHj+zb7PefLyYEXk2hVRrphf7TNS7AweqwSNldbuxfN6731P3Le5wPnJM3Zqb5+0at5dtqMbdP9e7IyfqrY7NVNb1Wco19PzcM5fuOyLqY9ce6DzFGur5gZP00aKU83p9O3Q4SaMHmodam+f4tlf3H1LWIeK7cNUuaddttkD9rXYrvdJvkvH8huuFF+uooMNYhzvuUYMv3EFtTNTaaXqsrEO32Yuowgu99fZQY33feV4l/2I3tlGgsa08A9m4/+h+uusOmwJshVT2ue56a/Akte3eSQ9WLqxi1e53rc+lQM7u+li0/VK/n2F2ROrJO+3KU6q9ephXKU//fXOv+b3Gc/5rqDpsvNY/xjD+NAQyAAD+h0DGLeV///ufRo8erYMHjVJK58YHcohqd5ui5+qUkN0IUXNdzEAs13SQem/IeK7x/B/Xq82rtVXACDpzWdfyjmLG8v3VY326j3/atUHt0i1rXo35jnKN9Pz4XWk/OmjfBrV8zIxvcxm7irZa4vq+z+fW/rZDbz9ZxBWfpVt/c2kP8MzlM/TcE3cp0P3cXGOzK/iu5/XSpN0ZPr5oVsx0NX6opBH8qcsWUJnQkWrdskq6i3SZc1ZDB7dShb8Z0eu+b1dcvzZRYV91TXMV69T7z9b6WLD9Ln0/w5xVz7cqKo+jkp6ZkfEK6F8vGaBKee0q8MLMTPYwM7l1CGQAAPwPgYxbytatWzV37lz3V2n5QyC7rsJ86LTGzotWN/M82NUnPSLQ2zg1a8Nm9Z0aqa5ffqch609neqEnc9mZG7aq/1dR+mjiQn2y4Bd95RGMaWb/YQ2bOU8fjZ+n3kuPXGEdsjNJ+mp1nD6ZEmmswyL1id6n6R6HRGeYI+c1PnqZuk9aqL7Ljyri/11U//Z3ewnklInatU9hM+ery+QlGrj6VBbbInWysz7Xb/t9/e0g3R1sV5HXoy4dqp0yCRrw3v26Pe99Co3I7seHMf4+BDIAAP6HQMYtIykpSZ999plOnDjhviUtvwlkr8swKZN1IOfaOfKHureoJPtfn1Vb87Ou3bfP3zZX9Uo4VKjpVI3P6g8JTK4cAhkAAP9DIOOWsXbtWs2fP9/9VUYEcm6YmzSQjYn6froeLRWkUq2XuPciJ2hwl7oKLPyM3v4uMcPyTO4fAhkAAP9DIOOWcPHiRQ0bNkwXLlxw35IRgZwb5uYNZPOq2BPHt1aJvz6sZgvjFRn7uR4sWlq1w3Zm8vFPTG4fAhkAAP9DIOOWEB0dre+++879lXc3LpCTNHbGF3onbKJ6rLjg5fvM5TEiMnKGsa0m6KPFJ2/CPyac0fDJk9Rx9m6Nnz9L7T9f78NnKTO5dQhkAAD8D4GMm96ZM2c0cuRIVwBn5cYFMsMwt+IQyAAA+B8CGTe9OXPmaNOmTe6vMkcgMwyTk0MgAwDgfwhk3NQOHz6ssWPHKjk52X1L5lID+clXW+vNT0YwDMNc1ylduZruvqea+79AAADAHxDIuKlNnz5dO3fudH+VtT///FOvNX9DdR5+VA8/+jjDMMx1HfO/NYPCBrv/CwQAAPwBgYyb1t69ezV+/Hj3VwAAAACQNQIZNy3z0OqDBw+6vwIAAACArBHIuClt3brVdXEuAAAAAPAVgYybzn/+8x/Xxzr98ccf7lsAAAAA4MoIZNx01q5dq+joaPdXAAAAAOAbAhk3lQsXLmjEiBE6d+6c+xYAAAAA8A2BjJvK8uXLXQMAAAAA2UUg46Zx9uxZDRs2TElJSe5bAAAAAMB3BDJuGnPnztWGDRvcXwEAAABA9hDIuCkcO3bM9bnHTqfTfQsAAAAAZA+BjJvCl19+qZ07d7q/AgAAAIDsI5CR6+3Zs0cTJ07Un3/+6b4FAAAAALKPQEau9r///c8Vx7/99pv7FgAAAAC4OgQycrVt27Zp2rRp7q8AAAAA4OoRyMi1/vvf/2rEiBE6efKk+xYAAAAAuHoEMnKt1atXa9GiRe6vAAAAAODaEMjIlRISEjRs2DCdO3fOfQsAAAAAXBsCGbnS8uXLtWLFCvdXAAAAAHDtCGTkOmfOnHHtPb548aL7FgAAAAC4dgQycp358+dr/fr17q8AAAAAwBoEMnKV48eP67PPPpPT6XTfAgAAAADWIJCRq0yZMkU7duxwfwUAAAAA1iGQkWvs27dPkydP1p9//um+BQAAAACsQyAjVzAPqZ4wYYL279/vvgUAAAAArEUgI1fYvn27pk2b5v4KAAAAAKxHIMPvJScna9SoUTpx4oT7FgAAAACwHoEMv7du3TpFRka6vwIAAACA64NAhl/797//raFDh+qf//yn+xYAAAAAuD4IZPi1b775RitWrHB/BQAAAADXD4EMv3XmzBmNHDlS//rXv9y3AAAAAMD1QyDDb82fP1/ff/+9+ysAAAAAuL4IZPilY8eO6bPPPnNdwRoAAAAAcgKBDL80Y8YM/fjjj+6vAAAAAOD6I5Dhd/bv36/w8HD3VwAAAACQMwhk+JU///xT48aNc0UyAAAAAOQkAhl+Zfv27Zo1a5b7KwAAAADIOQQy/MZ//vMfjR492nWBLgAAAADIaQQy/Ib5kU6RkZHurwAAAAAgZxHI8AuJiYkaMWKEzp8/774FAAAAAHIWgQy/sGzZMi1dutT9FQAAAADkPAIZN5y513j48OH697//7b4FAAAAAHIegYwb7uuvv3adfwwAAAAANxKBjBvKvGL1mDFjXFewBgAAAIAbiUDGDTVz5kzXZx8DAAAAwI1GIOOG2b9/v8aNG6c///zTfQsAAAAA3DgEMm6YCRMmuCIZAAAAAPwBgQxL7d69WwEBAXI4HFmO3W5Xnjx5vH6PYRiHKleurIMHD7r/lwUAAICcQCDDUubVqEuWLKkNGzZkOuvWrdP777+v6Ohor99nmFt9wsPDdeedd6pMmTJEMgAAQA4ikGEpM5AbNWrk/sq7hIQEVwQA8G7hwoWuPzS99NJLRDIAAEAOIpBhKV8CGUDWzEAuVaqU/vvf/7oiuXTp0kQyAABADiCQYSkCGbh2qYFsMiP55ZdfJpIBAAByAIEMSxHIwLXzDGQTkQwAAJAzCGRYikAGrl36QDYRyQAAANcfgQxLEcjAtfMWyCbPSP7999/dtwIAAMAqBDIsRSAD1y6zQDaZkfzKK68QyQAAANcBgQxLEcjAtcsqkE1EMgAAwPVBIMNSBDJw7cxANj8HedeuXZnOTz/9pAYNGqhYsWKKi4tz/yQAAACuBYEMSxHIwLUzA/nOO+9UQECAT2MuCwAAgGtHIMNSBDJw7f73v/8pKSlJ//73v684vXv31jPPPOP+SQAAAFwLAhmWIpCBnNWvXz81adLE/RUAAACuBYEMSxHIQM4ikAEAAKxDIMNS/hvISfppbDPVrF5d1dNMDdV4oKbqPNZAoW99qOHzftJZ90/cnM5rd/Q4zdyY6P7aU7w2j3pN9dt/pe++eFtPtgjXjwnub8FvEcgAAADWIZBhKf8N5ERtHlBHgbZg3d2whd58883L07K5Xmr4oEoH2xRgL65GI7fo5uzCJP08ppEKGc+x7YIL7tsuOxPbU7UL11HfuHjp3Gr1rFlEj/ZbbyQ1/BmBDAAAYB0CGZby/0D2Hoems1vH6sUydtmKN9fMY073rTeTLLZB/Fr1rp1fld+N1knXU3fq+Lx2qljwUQ3cyG5kf0YgAwAAWIdAhqWyF8jxOrB5lVau+lHHki9of+wMjQobqCFjZ2rFvnj3MqlSll21/bDif1+lL4cP0pDwSG08mnqocKKOblmkKZ+FqX//MI3+col+PJHs/p7pyoEsXdTKrvfIYS+v95emj8Ir3b9b0nFtWTBJI8IGafjkxdpxOlnn9m1QbOwa7TieGt0ezztdhzvP7tX3sbFa9/MJI1FT+fjYhrN7VmjW2MHGcoM0YlKU4n5Pfa5JOrJ9haa2v9fYBoUVOmy5Vm0+YKyJKVm7P2+iwsGPKmxbkusWl8SN6v9QsIq9NFn7PR7OeWaPl3XEjUIgAwAAWIdAhqWyFchJOzSsXpAC8r2kXgMbq5TdJps5AQGy5a+mN6f8pEsp6142uN4bal41WDab3Zh8ajRmj5ITdmt2p7oqZvxsgHG7w2F8L8CmwFJPqUf070b+mXwL5FXdqxmBXEbvLvYIZJ/u3wjHw9+oxxMl5LAZ6+9aP5sKPNBBgzrVdkVpq0j341563i00N92qJMZ9ogcD7Sr97uKUw7x9fGwzcvfPaaf78pnL2YzlHMbjG+tRqJY+WHDICNkT+vKVfGk+Ozeo3jDtMHs4YY16VA9USKOx2pumu5P184j6Cg6sqT5xF923Geu4rofutQeoZIfom/RQ9NyFQAYAALAOgQxLXVUg2xwKNELu3WlbdSLhtPYsCdNzZY3Ay/+khm5z7yFOXTbAiMfQkYr747wOr4nW6kNntL7fw8pvL6bHO09T3KF4OZPPaf/Kz9Wqen7ZizXRuJ/NCrxyIF/cO10tKxqPW/hlTT14eW+vT/fvPKqvW5WT3VZID3WaoS3HLij+QIyGhJY3AjPQiNWrCWQfH9t0IUadKztkL9dM4VtOKskZr30LOqtWiBHTNfvq+8REHdy0RBPaVjUCvpCaDorWsvV7XecXX4jprCqOINUbtkMe+49dkrYO0sNBDlXrFqvURE7eN09hXbuoz8wfMyyPnEcgAwAAWIdAhqWuLpCDVLf/Ro+9kU4dnfOmStsdqtrVHWapyzqq6MMYjyWPz1aLEnYVDp2Y5jBg04V1vYzYTL2P1EDOp1pvfKyePXtenh5d9P5bTVS9mBHHRow2GPL9pQtT+Xr///xtgprmtyno4YHa4nGBaOeR2WpZ2m48x+wH8j99fm7G4xw0Hj8kQMENRml36rLOg4ro1lxtun6huHPmDd7+SJCoDX1rKdBR2diul/cSX3LhG71X1q6gugO1lRr2SwQyAACAdQhkWOqqAjnoYQ36IV19nZqp1wsawfnkcO00v5W6bEioJh2+fOZrwpKOKmcP1P1tx2rO3Lma6zkz+6hJEeM+XIcSu+MwwCabw+E6BNl1uLLNPNzYJnv+0qrR+G19GrFdZzxOrPX1/r+PaKPitkA90DvOSE5PZxTxVtGr2oN80ufnZvzgxTXqcX+gAuxFVat5T4Uv2KTDGY5/9hbIpzTj9QKyBTfW2F/TVbgpaaeGPxkkW6GWmnNzf/5VrkUgAwAAWIdAhqWu7hzkZpp+2n1bqosx6lzJiNh7uirW3LF5adk3NPvS5w459cfUlxXicV6tt3FU7aZVF73FYbLO7Jin3o1KK6jEY/rHnF8uHUacwtf776KIz0ON5YLVeNx+j/OCTYla36uG8bjZDeRFOuDzczN/0qmTa0bo1WoFXedwm9EfVOJBhXYarqjtp4zvuu494zZI3qNRDYKNdXldM70FsPOoJr8QooDgZ/X5AS8BjRuOQAYAALAOgQxLWRbICUvVqbxdgdV7ab25SzaTqDzx5cvKFxCkOt0W6PuNG7XRy2za/pvOOr0FcgrnyZXq+XB+2UJqqFP0UXdMpvD1/vd/1cxYLlgNR+/JEMhxvR/INJDnpLtYd+K6nrrfvQf5N5+fm/uHTYnH9MOi8erd5hndXzww5YJnBeuq98oz5je9BvLohu5ANhdJzwjkL0JTAjn8N88Hgr8gkAEAAKxDIMNSV3eIdV19uiXtIdbO38arSYhN+V+YrCNml2USyBdjOquSwwjKtvOV9RHAmQeyKWHLUD1dyCZ7uTc0w2NPqa/3f3F1d1UzlqvY6dvLV9528XKIdfIujahvRumrmnYq5aZU8QvbqaQ9JZBP+fzcDBdP6cD29dq479LudePO9mv5gMYqYbep2NvzFO91G5zSjNeucIi1sd05xNp/EcgAAADWIZBhqau7SFegavVae+nCWEau6oeh9ZXfVkBNwvel7JHNJJB1epHal7fLVrSJxu5Me4D0uTW99EjpKnqs6yKdyGIPcooEbR32lArZ7KrQao4Ope4s9fX+z8bow7sdspdvpQhX0adw/j5Nr5dKd5Eu52FNCg2RLbCm+n7veUWvE4p+r4oc5pW6zatY+/zcjBZe/K7KGmFdrm2UTnrs6E3a8qnqBtlUtHWksX2TtHVgXQXZiqrNvNRtYF6kq2YWF+mKVocydtfFx7hIl38ikAEAAKxDIMNSVxfINiMWy+nZHpO1cOkiTe0TqruMqAup+bFWpB72m1kgG4H38/hQlbTbFFzlBfWeEq0VsTGKHN9Vjcs5ZAuqqvej/5DzCnuQXRI2a3C9ArI5KqldVOqh1r7ef7J+/ep1lTOWK/RQO42MWKIlESPUplZB2c3n5xnIRqj+NLy+8hm3F67bXmMiY7Ti29ka0f5xVSxTWoXde5ATfH5sQ/wq9agRZGzHimrae6oWx67VyuhJ+uipkrI77lL7BSnruHdMQwUHBKrWP2bru7hdOmX88IXlH6hSJh/zlLi5vx4KND/madWl87OTto7Sq3XrqNGAy7fhxiGQAQAArEMgw1JXFcghoeoR9qIqhdhSLj5ly6/Kz36syD0e+ZVpIBucp/T9hHf0SKmUc25TLmBlBHaFhvpo1g6lnObrQyAbLmwYqMcL2OS45z1F/+HeFevT/ZvOaOP4VqpZxJ6ynM2h4o920sAONY3H9Qxkw9lNCm9ZXYWM+E15zkEq83R3RUb1vHQVa9dFqH1+bOnclkl6u3YxOVxX5k5ZzlH0AbUcve7SXuWkHeF6vlTK+tmKt9E88+OfElap+32BCmk4RnvSHGVthPzQJxQUWFN94i7/LhLX9dC99gCV7BDt8dFcuFEIZAAAAOsQyLDU1V2kKyV64w9u1YplMVq/89jVhVfCMe1YH6Mli5dqxYbdOpH285aunY/3n3x6r+Jilmp53B6dTk4N83SB7JKs0/s26Luly7Tqh4NpYjcDX5+b87wObluj5d98o+VrtungeXcZe0g8/pNil0RrycrtOuK6n2TtGtNIBYMf0+DtHvuQL25Qv1pBKhI6UelPTz41/XXd2zmGPch+gEAGAACwDoEMS11LIN+csgpkP3L2O3W9P0RVOi1RylHtTp2Y107l89VW73Xp0j3hF018pbpaRbgP78YNRSADAABYh0CGpQjk9HJJIBupezy6o6oWfkrDtycaEbxRnz5SSDW6xLjOU/bkPBmjCWNX6IiXi14j5xHIAAAA1iGQYalsBXLyLo19vpxKVmyvSxdVvukkaduwhipbqorej/bzM3adp7Tik6f1YOuvtGJSc9VoPFDr+Ggnv0cgAwAAWIdAhqWyFcgArhmBDAAAYB0CGZYikIGcRSADAABYh0CGpQhkIGcRyAAAANYhkGEpAhnIWQQyAACAdQhkWCr3BnKSzv/xu/b+slv7j503vgJyBwIZAADAOgQyLOW3gZy8R1+0rKXqD3XRYs+LScf/ooVhbdXw3mIKsgUoIMAYW6CKVm2odkOitedqrq6d2WN5k51lr9p57Y4ep5kbE91f38qy2hbx2jzqNdVv/5W+++JtPdkiXD/6+YXHTQQyAACAdQhkWMpvA9nbZy4n/aIpr5aTw5ZPVRq3V5+R4zVl6hSFj+ipt58sbwSzQ+VemqAdF93L+yo7n++c/LNGNS6mgiXb6Pp8THKSfh7TSIXsxdV2wU37WVo+ynpbnIntqdqF66hvXLx0brV61iyiR/utN5LavxHIAAAA1iGQYancFMjnv+moCnaHKreN1GFnym2XJO3XzJYV5LCX0Bszjyr9t7OUnUC+7hK1eUAdBdoI5Cy3Rfxa9a6dX5XfjdZJ1y/bqePz2qliwUc1cKN/70YmkAEAAKxDIMNS2QvkeB3YvEqrth9W/O+r9OXwQRoSHqmNR1MPf03U0S2LNOWzMPXvH6bRXy7RjyeS3d9L77wOxC3Q1NGDNaBvXw0YFq7ZK/fqnPu7GaM1SdsHP6YgW0G99XW8a5H0Lq7+WPc6bCredoFSciplfVeu+lHH0hWz8+xefR8bq3U/n5DT87Hiz+qXb6dqxMABGjx2tlbvT78/0tt9Zud5G8/811jNGT9CA/sP1Mgp0frhj9QzqJN0ZPsKTW1/rxGFhRU6bLlWbT5gPGJ6Fv4eko5ry4JJGhE2SMMnL9aO08k6t2+DYmPXaMfx1Cfo43Z03eL7Y5/ds0Kzxg42lhukEZOiFPe7ZwRntS2StfvzJioc/KjCtnmcfZ64Uf0fClaxlyZrv8dDOs/sSbeONxaBDAAAYB0CGZbKViC7QzK43htqXjVYNpvdmHxqNGaPkhN2a3anuipmtynAuN3hML4XYFNgqafUI/p3I2k8nNuoMS9XVoh5DvGlZc3/P5+qtZur38yFMwSyU4cmhSq/zaHKbSL0u7ercjkTdPbkCZ085z7GOos9w4lxn+jBQLtKv7tYCanLBTdQm3dqqqDNZjwvY4x1shWsrjbTftalfZLp7zM7z9t5XCsGNlH5IHNZm+zGz7iWLfOMBq85ZTzDE/rylXwp51W7J6jeMO1I/1wt+j04D3+jHk+UkMP4PaTch00FHuigQZ1qu6K0Veox5L5uR58fO1n757TTfflStoPD4TAe21iHQrX0wYJD7ojNYlskrFGP6oEKaTRWe9Ns4GT9PKK+ggNrqk/c5ePsE9f10L32AJXsEH3593gDEcgAAADWIZBhqasJ5IAAI4hCRyruj/M6vCZaqw+d0fp+Dyu/vZge7zxNcYfi5Uw+p/0rP1er6vllL9ZE436+vJf0p+H1jdANVOUWE7ThmBkyCTocN0Et73YoIPAh9d+c6DXKnMcWqMPdgUZMOVTsgVB1/HSCImN36Fhm1eNr2F16Xmak1VbHrzbqyLnT2rd8qF6oYDxewac14kf3+qe5z/hsPG+njkW+rQp2u4rW66avfzypxIvHtXFyK91rBHNQjZ5acyFRBzct0YS2VY1oLaSmg6K1bP3ejOfUWvF7cB7V163KyW48zkOdZmjLsQuKPxCjIaHljcA0t3F2AzlCMb4+9oUYda7skL1cM4VvOakkZ7z2LeisWiFGTNfsq+9dO8Iz3xYXYjqriiNI9YbtMP41pZW0dZAeDnKoWrdYpSZy8r55CuvaRX1m/phh+RuBQAYAALAOgQxLXVUgO6row5jLVeo8PlstSthVOHRimkNbTRfW9TICyqGqXVOD5ZziJn2kt1//h6al2f13UWt63GfEUHG1W2hUWCZRFr9zrro9W8kI7NQ9izbZC1RQ3dAOGvDVWh28vOPQx7DzCGRbiJ4c9pORZqmcOh7RSmXsDt3bfXXK+nvc5+xfs/G8k/crvEl+2ULqa7jnLmHnMc1sXkIFyjbSMPMPA8ajX/EcZAt+D8m/TVDT/EaYPzxQWy4/YTmPzFbL0nZjW2QvkEu9+ZFe8/GxnQeNxw4JUHCDUdqduqzzoCK6NVebrl8o7tJx9t62RaI29K2lQEdl47l7/rLdLnyj98raFVR3oLb6Qw17QSADAABYh0CGpa4qkENCNcnjKlkJSzqqnD1Q97cdqzlz52qu58zsoyZFjBDzdqiwKfm8jv6yQcvmjFXnBqVkN8KsdZQRQ1lEmRlJx3/8Vl8N/1htQx9RpUIO1+HQATaHStbvpW+PutfNh7BLE8hB9TQs/UqemqnXCxrrX3+EfjZjzuM+v4rKxvM+H6XWRc0gHZQh3JITEz0OP85GIF/D7yF+fhsVtwXqgd5xxiN6OqOIt4pmew9yycbP6O++bouLa9Tj/kAF2IuqVvOeCl+wSYe9HgXgbVuc0ozXC8gW3Fhjf01X4qaknRr+ZJBshVpqzln3bX6GQAYAALAOgQxLXVUg53tDsy8d9+vUH1NfVoj7PNHMxlG1m1al7vBLOqxV4Z318mP3qGQ+hztu7QoK8ji0N4soyyDhqLZGj9X79czAtqtCu3k6YXajD2GXJpDzva6Z6aPqYow6V3LIUc29/peWba7x4b4/b+fv4/VcSIBCXpis1H73LhuBfNW/B6eOfBFqLBusxuP2pzkv2Xz89b1qGI+fnUDOoxJP1NVfvDye51z+N+DUyTUj9Gq1gim/+wAjnks8qNBOwxW13TwXO5WXbZG8R6MaBHv/XZmcRzX5hRAFBD+rzw94CWg/QCADAABYh0CGpa4ukNOG0okvX1a+gCDV6bZA32/cqI1eZtP233TWVT7ntPqTOspvXhCqylNq/n5PhY2brui43VrZ1+PiUOkf68x6Te3fR/0nr9WpTALTeXyO3ixll71Ue0WbeyQ97mNOuktBJ67rqfszBHIzTT/lXiBVwrfqVN6uwAc+UZy5q9XjPieM9/15O498oVAzkJ+fqEOWBfLV/x5OT29mLBushqP3ZAjkuN4PZBrImW1HM5BDfP434JZ4TD8sGq/ebZ7R/cUDXbFsK1hXvVeeSV3AayCPbugO5NTFPBmB/EVoSiCH/5blhr5hCGQAAADrEMiwlBWBfDGmsyo5jNhsO19XPKr1bJTeLmGXo9o/tDTlA2zdEvRtpwqui0Z5DeTzC/WOGb/lOyg6swdJ2qJP6wbJVqS1zKO0lbxLI+qbMfWqpqUL3/iF7VTSnv4Q60c06Ie0xz87fwtXkxCb8r0wWUfM1fVYr2kLs/G83efGBt7fU2vTHtOspJ/mKGzQaM1cf0TOawjk7PweLq7urmrGshU7fev+SKxUXg6x9mE7lny2qSr6ui0untKB7eu1cZ/H5cfi92v5gMYqYbep2Nvz3B/n5G1bnNKM165wiLWxbTjEGgAA4NZAIMNSVgSyTi9S+/J22Yo20didaS+cdG5NLz1Suooe67rIddiz89AEPW9eoKnxWHn2jfPoPL1T2aGAgHxqbh43nOGxTmlRh4qugK4/YJ3XvcjnN36qx/PZVCh0olxH1zoPa1JoiGyBNdU35dLIKZwnFP1eFTnMq0CnuUhXkGr3Xudx1egL2hL2hPLZ8qvRWPeeVs/1Ouj785bzD819q6Tsjvv0UYznrs94re35oBGBBfXCFweNQE7S1oF1FWQrqjbz0qbrJRb8HnQ+Rh/e7ZC9fCtFuMo/hfP3aXq9VLqLdPmyHVv1VBsfHzt+8bsqa0R1ubZR8vwbSdKWT1U3yKairSPdvwNv28K8SFfNLC7SFa0OZeyui49xkS4AAICbH4EMS1kSyEa0/Dw+VCXtNgVXeUG9p0RrRWyMIsd3VeNyDtmCqur96D9Szi1N/F59Hgw0bquiV8PmKmb1CkV/OVAtaxZRvnxGhAWEqMn43+X08ljJv0WoretzfwuqWugHGvblfC2LXa3YbyM1aUAbPVbKCL6iT2vw96mJm/KRUvlsNhWu215jImO04tvZGtH+cVUsU1qF0+9BtuVT/sJV9GK/GVoas0hTez+vioHGc3qgq2JSizzNemXjeRsubBqi+oVscpRrrG6TFmnFisWa2vcFVQm2Kej+D7XMtXc2WXvHNFRwQKBq/WO2vovbpWObR+nVunXUaMCqDFfSvurfg/E4v371usoZyxZ6qJ1GRizRkogRalOroOzG9kqzB9mn7ThPm3197PhV6lEjyAjuimrae6oWx67VyuhJ+ugp8w8Id6n9gsvrmH5bmL+GC8s/UKVMPuYpcXN/PRRofsyTe1sZkram2343GIEMAABgHQIZlrImkA3OU/p+wjt6pFTKuaQpF2ayKaRCQ300a4f7kFmTUydWDtQz5YxAci9nc5TQw+2/0PqlPfVAsF3Fm8/U0YveHyvxt+Ua0fZJVchncz9G6n0UUbUmH2jyhpOXgtTl7CaFt6yuQka4uZa1BanM090VGdXT60W6hn/ZXjWNiE1Z1qGSj3+gOb94XGI5/Tbw+XmbknV4eZhermZGqHtZY31K1+ukmTsvP8mkHeF6vpTddX+24m00Z2kP3WsPUMkO0XKtiSW/B9MZbRzfSjWLpDyW+XyLP9pJAzvUTHsOssmX7ZiNxz63ZZLerl1MDo+P63IUfUAtR69Lu1c53baYZ34EVMIqdb8vUCENx2hPmqOsjZAf+oSCAmuqT9zlFE5cl2773WAEMgAAgHUIZFgqW4Hsi4Rj2rE+RksWL9WKDbt1It35tqmc53/XlpVL9c23q/TDwfNpo9YHzvOH9FPcCi1dvFjfxsZpx+G06ZdWsk7v26Dvli7Tqh8OpovEjBKP79SaZd9qxeYDOpd+xdxxasvfMm2c+vi8XZLPaN9GY92/+Vartx/2uj6Jx39S7JJoLVm5XUeyuq/MZGN9kk/vVVzMUi2P26PTyann/aYLZBcft6Ovj+08r4Pb1mj5N99o+ZptOnje+7+CjNsiWbvGNFLB4Mc0eLvHPuSLG9SvVpCKhE5Mc/i+6dT013Vv5xj2IAMAANxkCGRYyvJAvtklblS/2oGyl3hHi/xhd6TlsgpkP3L2O3W9P0RVOi1RyhndTp2Y107l89VW73Xp0j3hF018pbpaRVw+3P1GIpABAACsQyDDUgSyr5J1YE2kZoe3V60Qm4LqDdMOP70I1LXJJYFspO7x6I6qWvgpDd+eaETwRn36SCHV6BKT4QJuzpMxmjB2hY6k26t8oxDIAAAA1iGQYSkC2UfJv2ps42DX+bK2QjXVaf4hv9gbab0kbRvWUGVLVdH7rg+T9mPOU1rxydN6sPVXWjGpuWo0Hqh1fvrRTp4IZAAAAOsQyLAUgeyrZJ07sltbN27V3pNXc1IwkIJABgAAsA6BDEsRyEDOIpABAACsQyDDUgQykLMIZAAAAOsQyLAUgQzkLAIZAADAOgQyLEUgAzmLQAYAALAOgQxL5a5APq/d0eM0c2PqRbKS9NPYZqpZvbqqp5kaqvFATdV5rIFC3/pQw+f9pFxwceNrkH67eIrX5lGv6qHHH1Od5uH68ab87ObchUAGAACwDoEMS+WeQE7Sz2MaqZC9uNouSP183tTP7A3W3Q1b6M0337w8LZvrpYYPqnSwTQHGzzQauUU3Zxt62y6XnYntqdqF66jvsiXqWbOIHu233shp3EgEMgAAgHUIZFgq9wRyagx7C2TvcWg6u3WsXixjl614c808djN+cnEW2yB+rXrXzq/K70brpNOp4/PaqWLBRzVwI7uRbyQCGQAAwDoEMiyVvUCO14HNq7Ry1Y86lnxB+2NnaFTYQA0ZO1Mr9sW7l8no3J4VmjluiAb0H6TPpkTrh+NJ7u9cdtZYZtbYwepvLDNiUpTifveMvSQd2b5CU9vfa4RgYYUOW65Vmw8Ya3PlQJYuamXXe+Swl9f7Sz3DMFFHtyzSlM/CjMcM0+gvl+jHE8nu76WTdFxbFkzSiLBBGj55sXacTta5fRsUG7tGO46nRrfHtknX4c6ze/V9bKzW/XxCKd/y/bGvbruYkrX78yYqHPyowra5t3fiRvV/KFjFXpqs/R4P5zyzJ9364XoikAEAAKxDIMNS2QrkpB0aVi9IAfleUq+BjVXKbpPNnIAA2fJX05tTflKaTHWe1LqRL6tyiE0BNpvsdruxrE2OkvXVY/FBI+FMydo/p53uy5eyjMPhkM1m3F+hWvpgwSF3sJ3Ql6/kU4DxOKkTVG+YdiT5FsirulczArmM3l3sDuSE3Zrdqa6KGeseYLMbj5myXoGlnlKP6N/d65XCefgb9XiihBzmOhnL2ox1LPBABw3qVNsVpa0i3Y97adu00Nx0q5IY94keDLSr9LuLleDzY1/LdjG+lbBGPaoHKqTRWO29dKfJ+nlEfQUH1lSfuIvu24z1W9dD99oDVLJD9E16GLp/IZABAACsQyDDUlcVyDaHAo1Qe3faVp1IOK09S8L0XFkj4PI/qaHbUi8U5dSxee10l8OmgnXe14wtx5WYfFZ7Fg/Qs2XsshdvqvBdRrldiFHnyg7ZyzVT+JaTSnLGa9+CzqplRHVgzb763nV3iTq4aYkmtK1qhGohNR0UrWXr9+q8D3uQL+6drpYVjXUr/LKmHjSzMl7r+z2s/PZierzzNMUdipcz+Zz2r/xcrarnl71YE4372b3H1XlUX7cqJ7vxmA91mqEtxy4o/kCMhoSWNyIz0AjW7AZyhGJ8fexr2i7mj3dWFUeQ6g3bIc/99UlbB+nhIIeqdYtVaiIn75unsK5d1Gfmj2mWxfVBIAMAAFiHQIalri6Qg1S3/0aPvY1OHZ3zpkrbHara1R1eyb9q3LP5ZQt6RAO3XN5baS57aNprKmEsW637Kl04OEFNQwIU3GCUdqfu6XQeVES35mrT9QvFnXPf5jWGU2/Lp1pvfKyePXtenh5d9P5bTVS9mBHHRpA2GPK9Kxydx2erRQm7CodOTHOYsenCul5GyF5+Dsm/GeuW36aghwdqi8cFop1HZqtlabuxHbIXyKXe/Eiv+fjYzmvcLhv61lKgo7I+jPHc9oYL3+i9snYF1R2ordTwDUEgAwAAWIdAhqWuKpCDHtagH9LV1amZer2gEZNPDtdO81vnItWqiE2BdQZoc/pPHzoxXa+Zy9Yzlj23Rj3uD1SAvahqNe+p8AWbdNjrcb5ZBHKATTaHw3UYsuuQZZt5uLFN9vylVaPx2/o0YrvOuE+uTVjSUeXsgbq/7VjNmTtXcz1nZh81MdY59TDl+PltVNwWqAd6xxmP5OmMIt4qmu09yCUbP6O/+/jYungt2+WUZrxeQLbgxhr7a7oST9qp4U8GyVaopebc3J995bcIZAAAAOsQyLDU1Z2D3EzTT7tvS3UxRp0rGYF6T1fFXpScv4WrSUiAQkK/0NH0V35KXbZaN6266NTJNSP0arWCrnOZzbANKvGgQjsNV9T2U+5zbU1ZBHKa25J1Zsc89W5U2rifx/SPOb9cOpTYWCv9MfVlhXics+ttHFVT1uvIF6HGssFqPG5/mvOSzcdd36uG8bjZCeQ8KvFEXf3Fy+N5Tspjmz91DdsleY9GNQg21uV1zUwfwc6jmvxCiAKCn9XnB9LFM3IEgQwAAGAdAhmWsiyQE5aqU3m7Aqv30vpEs8O+UKgZyE0n6FD6QDaWfb+csez9PbU2ddds4jH9sGi8erd5RvcXD3RFoa1gXfVeeSZ1AR8DOYXz5Er1fDi/bCE11Cn66KWgPPHly8oXEKQ63Rbo+40btdHLbNr+m84aP3B6ejNj2WA1HL0nQyDH9X4g00Cek+6C3onreur+QLsrkEN8fOxLrma7GIE8uqE7kFMXS2UE8hehKYEc/lv6XwxyAoEMAABgHQIZlrq6Q6zr6tMtaQ+xdv42Xk1CbMr/wmQdMbsrYYk6GhHsqJqyR9lT8v5xeiY4QMGNx2n/P0/pwPb12rjPPEPYLX6/lg9orBJ2m4q9Pc/9sUXZC2RTwpaherqQTfZyb2iGe2/pxZjOquSwq3Tb+brSEcYXV3dXNWPZip2+TXt1bm+HWCfv0oj6ZpS+qmmnUm5KFb+wnUra7Sr5bFNV9PGxdfFatsspzXgti0Osjd8hh1jfOAQyAACAdQhkWOrqLtIVqFq91rouepUiQT8Mra/8tgJqEr4vZW+r84QiWpWS3VFFHRb94XFI8AVtHvS48pkX+vp0i04vfldljXgs1zZKJz12aCZt+VR1g2wq2jrS/ThJ2jqwroJsRdVmnm+BbK7X1mFPqZDNrgqt5qTsyT69SO3L22Ur2kRjd6Yt93NreumR0lX0WNdFOmEuez5GH97tkL18K0W4qj+F8/dper1Uuot0OQ9rUmiIbIE11TflEtMpjO0Q/V4VOQKMMG7VU218fOz4a9wuG/rWzOQiXdHqUMbuuvAYF+m6MQhkAAAA6xDIsNTVBbLNCMFyerbHZC1cukhT+4TqLiPaQmp+rBUeh/QmbB6ip8w9uCXr64PxC7Qidqmm93tRVYJtCqzyjqLM6IxfpR41goz7q6imvadqcexarYyepI+eKmnE9V1qvyA1rpO1d0xDBQcYcf6P2foubpdOOa8UyIaEzRpcr4BsjkpqF2Ueap2on8eHqqTdpuAqL6j3lGhjvWIUOb6rGpdzyBZUVe9HX37MX796XeWMZQs91E4jI5ZoScQItalVUHZzG3gGshGqPw2vb4S/TYXrtteYyBit+Ha2RrR/XBXLlFZhI3ZLvztPm3197GvaLkYHL/9Albx8zFPi5v56KND8mKdVl87NTto6Sq/WraNGAy7fhuuHQAYAALAOgQxLXVUgh4SqR9iLqhRiS7m4lC2/Kj/7sSL3pM+rZB1ePkgvVzUC1XWhqZRl72rYWTN/unyi7rktk/R27WJyuK4+nXJBKkfRB9Ry9Lq0e093hOv5UvaU83CLt9G8cz4EsuHChoF6vIBxn/e8p+g/jDt0ntL3E97RI6VSzulNfcyQCg310awd7kOXU53RxvGtVLNIyuOanwFd/NFOGtihpvG4noFsOLtJ4S2rq5ARwCnPNUhlnu6uyKierqtYl353sRKy8dhXv12MGxNWqft9gQppOEZ7Lh1lbUT80CcUFFhTfeIu/64S1/XQvfYAlewQ7fHRXbheCGQAAADrEMiw1NVdpCvlSs3xB7dqxbIYrd95LOuwSjqtvRu+09JvV+j7X/7wvpfSeV4Ht63R8m++0fI123TwvEcBekg8/pNil0RrycrtOpL+46OyK+GYdqyP0ZLFS7Viw26dyOL+kk/vVVzMUi2P26PTyalhni6QXZJ1et8Gfbd0mVb9cDBdbHvw9bGverska9eYRioY/JgGb3fvQ764Qf1qBalI6ESlPzX51PTXdW/nGPYg5wACGQAAwDoEMix1LYF868oqkP3I2e/U9f4QVem0RGfk1Il57VQ+X231Xpcu2xN+0cRXqqtVhOe54rheCGQAAADrEMiwFIF8NXJJIBu5ezy6o6oWfkrDv1+jTx8ppBpdYlznKHtynozRhLErdCTdXmVcHwQyAACAdQhkWCpbgZy8S2OfL6eSFdvr0gWTb0lJ2jasocqWqqL3o/38rF3nKa34pL6qPlxH9zQaqHV8tNMNRyADAABYh0CGpbIVyACuGYEMAABgHQIZliKQgZxFIAMAAFiHQIalCGQgZxHIAAAA1iGQYSkCGchZBDIAAIB1CGRYikAGchaBDAAAYB0CGZYikIGcRSADAABYh0CGpQhkIGcRyAAAANYhkGEpAhnIWQQyAACAdQhkWIpABnIWgQwAAGAdAhmWIpCBnEUgAwAAWIdAhqUIZCBnEcgAAADWIZBhKQIZyFkEMgAAgHUIZFiKQAZyFoEMAABgHQIZliKQgZxFIAMAAFiHQIalCGQgZxHIAAAA1iGQYSkCGchZBDIAAIB1CGRYikAGchaBDAAAYB0CGZYikIGcRSADAABYh0CGpQhkIGcRyAAAANYhkGEpAhnIWQQyAACAdQhkWMoM5JIlS2rjxo0Mw+TAmH+QevbZZ93/CwQAAMC1IJBhqd27dysgIEC33347wzA5MOb/3j788EP3/wIBAABwLQhkAAAAAAAMBDIAAAAAAAYCGQAAAAAAA4EMAAAAAICBQAYAAAAAwEAgAwAAAABgIJABAAAAADAQyAAAAAAAGAhkAAAAAAAMBDIAAAAAAAYCGQAAAAAAA4EMAAAAAICBQAYAAAAAwEAgAwAAAABgIJABAAAAADAQyAAAAAAAGAhkAAAAAAAMBDIAAAAAAAYCGQAAAAAAA4EMAAAAAICBQAYAAAAAwEAgAwAAAABgIJABAAAAADAQyAAAAAAAGAhkAAAAAAAMBDIAAAAAAAYCGQAAAAAAA4EMAAAAAICBQAYAAAAAwEAgAwAAAABgIJABAAAAADAQyAAAAAAAGAhkAAAAAAAMBDIAAAAAAAYCGQAAAAAAA4EMAAAAAICBQAYAAAAAwEAgAwAAAABgIJABAAAAADAQyAAAAAAAGAhkAAAAAAAMBDIAAAAAAAYCGQAAAAAAA4EMAAAAAICBQAYAAAAAwEAgAwAAAABgIJABAAAAADAQyAAAAAAAGAhkAAAAAAAMBDIAAAAAAAYCGQAAAAAAA4EMAAAAAICBQAYAAAAAwEAgAwAAAABgIJABAAAAADAQyAAAAAAAGAhkAAAAAAAMBDIAAAAAAAYCGQAAAAAAA4EMAAAAAICBQAYAAAAAQNL/B7Ry4Y1AOqeRAAAAAElFTkSuQmCC;" vertex="1" parent="1">
          <mxGeometry x="420" y="20" width="278" height="190.69" as="geometry" />
        </mxCell>
        <mxCell id="csXw5IK4L9ogY58cCocU-10" style="edgeStyle=orthogonalEdgeStyle;rounded=0;orthogonalLoop=1;jettySize=auto;html=1;entryX=0;entryY=0.5;entryDx=0;entryDy=0;endArrow=open;endFill=0;" edge="1" parent="1" source="csXw5IK4L9ogY58cCocU-3" target="csXw5IK4L9ogY58cCocU-5">
          <mxGeometry relative="1" as="geometry" />
        </mxCell>
        <mxCell id="csXw5IK4L9ogY58cCocU-3" value="&lt;p style=&quot;margin:0px;margin-top:4px;text-align:center;&quot;&gt;&lt;b&gt;Client&lt;/b&gt;&lt;/p&gt;&lt;hr size=&quot;1&quot;&gt;&lt;div style=&quot;height:2px;&quot;&gt;&lt;/div&gt;" style="verticalAlign=top;align=left;overflow=fill;fontSize=12;fontFamily=Helvetica;html=1;" vertex="1" parent="1">
          <mxGeometry x="130" y="250" width="140" height="60" as="geometry" />
        </mxCell>
        <mxCell id="csXw5IK4L9ogY58cCocU-5" value="&lt;p style=&quot;margin:0px;margin-top:4px;text-align:center;&quot;&gt;&lt;b&gt;Subject&lt;/b&gt;&lt;/p&gt;&lt;hr size=&quot;1&quot;&gt;&lt;p style=&quot;margin:0px;margin-left:4px;&quot;&gt;&lt;br&gt;&lt;/p&gt;&lt;hr size=&quot;1&quot;&gt;&lt;p style=&quot;margin:0px;margin-left:4px;&quot;&gt;+ request(): void&lt;/p&gt;" style="verticalAlign=top;align=left;overflow=fill;fontSize=12;fontFamily=Helvetica;html=1;" vertex="1" parent="1">
          <mxGeometry x="390" y="235" width="160" height="90" as="geometry" />
        </mxCell>
        <mxCell id="csXw5IK4L9ogY58cCocU-9" style="edgeStyle=orthogonalEdgeStyle;rounded=0;orthogonalLoop=1;jettySize=auto;html=1;entryX=0.192;entryY=1.03;entryDx=0;entryDy=0;entryPerimeter=0;endArrow=block;endFill=0;" edge="1" parent="1" source="csXw5IK4L9ogY58cCocU-6" target="csXw5IK4L9ogY58cCocU-5">
          <mxGeometry relative="1" as="geometry" />
        </mxCell>
        <mxCell id="csXw5IK4L9ogY58cCocU-11" style="edgeStyle=orthogonalEdgeStyle;rounded=0;orthogonalLoop=1;jettySize=auto;html=1;endArrow=open;endFill=0;" edge="1" parent="1" source="csXw5IK4L9ogY58cCocU-6" target="csXw5IK4L9ogY58cCocU-7">
          <mxGeometry relative="1" as="geometry" />
        </mxCell>
        <mxCell id="csXw5IK4L9ogY58cCocU-6" value="&lt;p style=&quot;margin:0px;margin-top:4px;text-align:center;&quot;&gt;&lt;b&gt;ProxySubject&lt;/b&gt;&lt;/p&gt;&lt;hr size=&quot;1&quot;&gt;&lt;p style=&quot;margin:0px;margin-left:4px;&quot;&gt;- realSubject: RealSubject&lt;/p&gt;&lt;hr size=&quot;1&quot;&gt;&lt;p style=&quot;margin:0px;margin-left:4px;&quot;&gt;+ request()&lt;/p&gt;" style="verticalAlign=top;align=left;overflow=fill;fontSize=12;fontFamily=Helvetica;html=1;" vertex="1" parent="1">
          <mxGeometry x="240" y="380" width="160" height="90" as="geometry" />
        </mxCell>
        <mxCell id="csXw5IK4L9ogY58cCocU-8" style="edgeStyle=orthogonalEdgeStyle;rounded=0;orthogonalLoop=1;jettySize=auto;html=1;entryX=0.621;entryY=1.067;entryDx=0;entryDy=0;entryPerimeter=0;endArrow=block;endFill=0;" edge="1" parent="1" source="csXw5IK4L9ogY58cCocU-7" target="csXw5IK4L9ogY58cCocU-5">
          <mxGeometry relative="1" as="geometry" />
        </mxCell>
        <mxCell id="csXw5IK4L9ogY58cCocU-7" value="&lt;p style=&quot;margin:0px;margin-top:4px;text-align:center;&quot;&gt;&lt;b&gt;RealSubject&lt;/b&gt;&lt;/p&gt;&lt;hr size=&quot;1&quot;&gt;&lt;p style=&quot;margin:0px;margin-left:4px;&quot;&gt;&lt;br&gt;&lt;/p&gt;&lt;hr size=&quot;1&quot;&gt;&lt;p style=&quot;margin:0px;margin-left:4px;&quot;&gt;+request()&lt;/p&gt;" style="verticalAlign=top;align=left;overflow=fill;fontSize=12;fontFamily=Helvetica;html=1;" vertex="1" parent="1">
          <mxGeometry x="470" y="380" width="160" height="90" as="geometry" />
        </mxCell>
        <mxCell id="csXw5IK4L9ogY58cCocU-12" value="realSubject.request" style="text;align=center;fontStyle=1;verticalAlign=middle;spacingLeft=3;spacingRight=3;strokeColor=none;rotatable=0;points=[[0,0.5],[1,0.5]];portConstraint=eastwest;" vertex="1" parent="1">
          <mxGeometry x="90" y="450" width="80" height="26" as="geometry" />
        </mxCell>
        <mxCell id="csXw5IK4L9ogY58cCocU-13" value="" style="endArrow=none;html=1;rounded=0;entryX=0;entryY=0.75;entryDx=0;entryDy=0;" edge="1" parent="1" source="csXw5IK4L9ogY58cCocU-12" target="csXw5IK4L9ogY58cCocU-6">
          <mxGeometry width="50" height="50" relative="1" as="geometry">
            <mxPoint x="380" y="330" as="sourcePoint" />
            <mxPoint x="430" y="280" as="targetPoint" />
          </mxGeometry>
        </mxCell>
      </root>
    </mxGraphModel>
  </diagram>
</mxfile>
